# Chaos Golf - dimpled golf ball (generated by tools/gen_ball.py)
# 108 dimples, depth 0.042 studs, radius 0.75 studs (diameter 1.5)
# vertices 482  triangles 960  Y-up, CCW = outward
o GolfBall
v -0.572178 -0.463410 0.142704
v -0.036801 -0.629307 -0.406347
v 0.682300 0.052294 0.306973
v -0.036801 0.406347 -0.629307
v 0.142704 0.463410 -0.572178
v 0.433013 0.433013 -0.433013
v 0.433013 0.433013 0.433013
v 0.545132 0.325210 0.399462
v -0.142704 0.463410 0.572178
v 0.161863 0.496653 0.538179
v 0.325210 0.399462 0.545132
v 0.323221 0.262757 0.623688
v 0.036801 0.406347 0.629307
v 0.220985 -0.683678 0.215059
v 0.323221 -0.623688 0.262757
v -0.433013 -0.433013 0.433013
v -0.496653 -0.538179 0.161863
v -0.399462 -0.545132 0.325210
v -0.323221 -0.623688 -0.262757
v -0.463410 -0.572178 -0.142704
v -0.306973 -0.682300 0.052294
v -0.406347 -0.629307 0.036801
v -0.161863 -0.538179 -0.496653
v -0.399462 -0.325210 -0.545132
v -0.325210 -0.545132 -0.399462
v -0.433013 -0.433013 -0.433013
v 0.629307 0.036801 0.406347
v 0.538179 0.161863 0.496653
v 0.463410 0.142704 0.572178
v 0.406347 -0.036801 0.629307
v 0.496653 -0.161863 0.538179
v 0.572178 -0.142704 0.463410
v -0.720083 -0.199818 0.063669
v -0.496653 -0.161863 -0.538179
v 0.463410 -0.572178 0.142704
v 0.406347 -0.629307 -0.036801
v 0.572178 -0.463410 -0.142704
v 0.496653 -0.538179 -0.161863
v 0.720083 -0.199818 -0.063669
v 0.720083 -0.063669 0.199818
v 0.220985 -0.215059 -0.683678
v 0.323221 -0.262757 -0.623688
v 0.545132 -0.325210 -0.399462
v 0.623688 -0.323221 -0.262757
v 0.683678 -0.220985 -0.215059
v 0.199818 -0.063669 -0.720083
v -0.683678 0.220985 -0.215059
v -0.538179 0.161863 -0.496653
v -0.463410 0.572178 0.142704
v -0.063669 0.720083 -0.199818
v 0.199818 0.720083 -0.063669
v 0.463410 0.572178 -0.142704
v 0.142704 0.572178 0.463410
v 0.325210 0.545132 -0.399462
v 0.161863 0.538179 -0.496653
v 0.220985 0.683678 -0.215059
v 0.323221 0.623688 -0.262757
v 0.052294 0.682300 -0.306973
v 0.036801 0.629307 -0.406347
v 0.399462 0.545132 0.325210
v 0.262757 0.623688 0.323221
v 0.215059 0.683678 0.220985
v 0.496653 0.538179 0.161863
v 0.406347 0.629307 0.036801
v 0.306973 0.682300 0.052294
v 0.572178 0.463410 0.142704
v 0.720083 0.199818 0.063669
v 0.683678 0.220985 0.215059
v 0.623688 0.323221 0.262757
v 0.538179 0.496653 -0.161863
v 0.629307 0.406347 -0.036801
v 0.682300 0.306973 -0.052294
v 0.545132 0.399462 -0.325210
v 0.220985 0.215059 0.683678
v -0.063669 0.199818 0.720083
v 0.052294 0.306973 0.682300
v 0.052294 -0.682300 0.306973
v -0.063669 -0.720083 0.199818
v -0.215059 -0.683678 0.220985
v -0.262757 -0.623688 0.323221
v -0.325210 -0.399462 0.545132
v -0.720083 0.199818 -0.063669
v -0.545132 -0.325210 0.399462
v -0.623688 -0.323221 0.262757
v -0.683678 -0.220985 0.215059
v -0.199818 -0.720083 -0.063669
v -0.220985 -0.683678 -0.215059
v -0.052294 -0.682300 -0.306973
v -0.142704 -0.463410 -0.572178
v -0.063669 -0.199818 -0.720083
v -0.215059 -0.220985 -0.683678
v -0.262757 -0.323221 -0.623688
v 0.052294 -0.306973 -0.682300
v 0.036801 -0.406347 -0.629307
v 0.262757 -0.323221 0.623688
v 0.399462 -0.325210 0.545132
v 0.325210 -0.545132 0.399462
v 0.433013 -0.433013 0.433013
v -0.545132 -0.399462 -0.325210
v -0.538179 -0.496653 -0.161863
v -0.629307 -0.406347 -0.036801
v -0.682300 -0.306973 -0.052294
v -0.720083 -0.063669 -0.199818
v -0.682300 0.052294 -0.306973
v -0.629307 0.036801 -0.406347
v -0.572178 -0.142704 -0.463410
v -0.623688 -0.262757 -0.323221
v -0.683678 -0.215059 -0.220985
v -0.463410 0.142704 -0.572178
v -0.323221 0.262757 -0.623688
v -0.306973 -0.052294 -0.682300
v -0.406347 -0.036801 -0.629307
v 0.538179 -0.496653 0.161863
v 0.545132 -0.399462 0.325210
v 0.629307 -0.406347 0.036801
v 0.682300 -0.306973 0.052294
v 0.623688 -0.262757 0.323221
v 0.683678 -0.215059 0.220985
v 0.433013 -0.433013 -0.433013
v 0.325210 -0.399462 -0.545132
v 0.399462 -0.545132 -0.325210
v 0.262757 -0.623688 -0.323221
v 0.142704 -0.572178 -0.463410
v 0.161863 -0.496653 -0.538179
v 0.682300 -0.052294 -0.306973
v 0.720083 0.063669 -0.199818
v 0.623688 0.262757 -0.323221
v 0.683678 0.215059 -0.220985
v 0.463410 -0.142704 -0.572178
v 0.538179 -0.161863 -0.496653
v 0.629307 -0.036801 -0.406347
v 0.572178 0.142704 -0.463410
v -0.220985 0.215059 -0.683678
v -0.199818 0.063669 -0.720083
v -0.052294 0.306973 -0.682300
v 0.063669 0.199818 -0.720083
v -0.215059 0.683678 -0.220985
v -0.406347 0.629307 -0.036801
v -0.306973 0.682300 -0.052294
v -0.199818 0.720083 0.063669
v 0.063669 0.720083 0.199818
v 0.215059 -0.220985 0.683678
v 0.306973 -0.052294 0.682300
v 0.199818 0.063669 0.720083
v 0.036801 -0.629307 0.406347
v 0.161863 -0.538179 0.496653
v 0.142704 -0.463410 0.572178
v -0.036801 -0.406347 0.629307
v -0.142704 -0.572178 0.463410
v -0.161863 -0.496653 0.538179
v -0.323221 -0.262757 0.623688
v -0.538179 0.496653 0.161863
v -0.629307 0.406347 0.036801
v -0.682300 0.306973 0.052294
v 0.215059 -0.683678 -0.220985
v 0.063669 -0.720083 -0.199818
v 0.199818 -0.720083 0.063669
v 0.306973 -0.682300 -0.052294
v 0.306973 0.052294 -0.682300
v 0.406347 0.036801 -0.629307
v 0.496653 0.161863 -0.538179
v 0.399462 0.325210 -0.545132
v 0.262757 0.323221 -0.623688
v 0.215059 0.220985 -0.683678
v -0.262757 0.623688 -0.323221
v -0.325210 0.399462 -0.545132
v -0.161863 0.496653 -0.538179
v -0.142704 0.572178 -0.463410
v -0.036801 0.629307 0.406347
v -0.052294 0.682300 0.306973
v -0.161863 0.538179 0.496653
v -0.325210 0.545132 0.399462
v -0.323221 0.623688 0.262757
v -0.220985 0.683678 0.215059
v -0.199818 -0.063669 0.720083
v -0.220985 -0.215059 0.683678
v -0.052294 -0.306973 0.682300
v 0.063669 -0.199818 0.720083
v -0.306973 0.052294 0.682300
v -0.215059 0.220985 0.683678
v -0.262757 0.323221 0.623688
v -0.720083 0.063669 0.199818
v -0.683678 0.215059 0.220985
v -0.682300 -0.052294 0.306973
v -0.433013 0.433013 -0.433013
v -0.399462 0.545132 -0.325210
v -0.545132 0.325210 -0.399462
v -0.623688 0.323221 -0.262757
v -0.572178 0.463410 -0.142704
v -0.496653 0.538179 -0.161863
v -0.629307 -0.036801 0.406347
v -0.538179 -0.161863 0.496653
v -0.463410 -0.142704 0.572178
v -0.406347 0.036801 0.629307
v -0.545132 0.399462 0.325210
v -0.623688 0.262757 0.323221
v -0.433013 0.433013 0.433013
v -0.399462 0.325210 0.545132
v -0.496653 0.161863 0.538179
v -0.572178 0.142704 0.463410
v 0.750000 0.000000 0.000000
v -0.750000 0.000000 0.000000
v 0.000000 0.000000 -0.750000
v 0.000000 0.750000 0.000000
v 0.000000 -0.750000 0.000000
v 0.000000 0.000000 0.750000
v -0.602872 -0.396565 0.204405
v -0.605982 -0.438671 0.053413
v -0.100048 -0.587952 -0.454756
v 0.053413 -0.605982 -0.438671
v 0.705335 -0.005721 0.254893
v 0.688660 0.137774 0.263183
v 0.053413 0.438671 -0.605982
v -0.100048 0.454756 -0.587952
v 0.204405 0.396565 -0.602872
v 0.546063 0.245518 0.451703
v -0.053413 0.438671 0.605982
v -0.204405 0.396565 0.602872
v 0.245518 0.451703 0.546063
v 0.100048 0.454756 0.587952
v 0.396565 0.204405 0.602872
v 0.137774 -0.688660 0.263183
v 0.396565 -0.602872 0.204405
v -0.451703 -0.546063 0.245518
v -0.454756 -0.587952 0.100048
v -0.396565 -0.602872 -0.204405
v -0.438671 -0.605982 -0.053413
v -0.263183 -0.688660 0.137774
v -0.254893 -0.705335 -0.005721
v -0.245518 -0.546063 -0.451703
v -0.451703 -0.245518 -0.546063
v 0.587952 0.100048 0.454756
v 0.605982 -0.053413 0.438671
v 0.438671 0.053413 0.605982
v 0.454756 -0.100048 0.587952
v 0.451703 -0.245518 0.546063
v 0.602872 -0.204405 0.396565
v -0.705335 -0.254893 0.005721
v -0.742483 -0.100921 0.032157
v -0.454756 -0.100048 -0.587952
v 0.438671 -0.605982 0.053413
v 0.454756 -0.587952 -0.100048
v 0.602872 -0.396565 -0.204405
v 0.605982 -0.438671 -0.053413
v 0.451703 -0.546063 -0.245518
v 0.705335 -0.254893 -0.005721
v 0.742483 -0.100921 -0.032157
v 0.742483 -0.032157 0.100921
v 0.137774 -0.263183 -0.688660
v 0.396565 -0.204405 -0.602872
v 0.546063 -0.245518 -0.451703
v 0.688660 -0.137774 -0.263183
v 0.254893 -0.005721 -0.705335
v 0.100921 -0.032157 -0.742483
v -0.688660 0.137774 -0.263183
v -0.587952 0.100048 -0.454756
v -0.546063 0.245518 -0.451703
v -0.438671 0.605982 0.053413
v -0.396565 0.602872 0.204405
v -0.005721 0.705335 -0.254893
v -0.032157 0.742483 -0.100921
v 0.254893 0.705335 -0.005721
v 0.100921 0.742483 -0.032157
v 0.396565 0.602872 -0.204405
v 0.438671 0.605982 -0.053413
v 0.204405 0.602872 0.396565
v 0.053413 0.605982 0.438671
v 0.245518 0.546063 -0.451703
v 0.100048 0.587952 -0.454756
v 0.137774 0.688660 -0.263183
v -0.053413 0.605982 -0.438671
v 0.451703 0.546063 0.245518
v 0.263183 0.688660 0.137774
v 0.454756 0.587952 0.100048
v 0.602872 0.396565 0.204405
v 0.605982 0.438671 0.053413
v 0.705335 0.254893 0.005721
v 0.742483 0.100921 0.032157
v 0.587952 0.454756 -0.100048
v 0.546063 0.451703 -0.245518
v 0.688660 0.263183 -0.137774
v 0.137774 0.263183 0.688660
v -0.005721 0.254893 0.705335
v -0.032157 0.100921 0.742483
v -0.005721 -0.705335 0.254893
v -0.032157 -0.742483 0.100921
v -0.204405 -0.602872 0.396565
v -0.245518 -0.451703 0.546063
v -0.705335 0.254893 -0.005721
v -0.742483 0.100921 -0.032157
v -0.546063 -0.245518 0.451703
v -0.688660 -0.137774 0.263183
v -0.100921 -0.742483 -0.032157
v -0.137774 -0.688660 -0.263183
v 0.005721 -0.705335 -0.254893
v -0.204405 -0.396565 -0.602872
v -0.053413 -0.438671 -0.605982
v -0.005721 -0.254893 -0.705335
v -0.032157 -0.100921 -0.742483
v -0.263183 -0.137774 -0.688660
v 0.100048 -0.454756 -0.587952
v 0.204405 -0.396565 0.602872
v 0.245518 -0.546063 0.451703
v -0.546063 -0.451703 -0.245518
v -0.587952 -0.454756 -0.100048
v -0.688660 -0.263183 -0.137774
v -0.705335 -0.005721 -0.254893
v -0.742483 -0.032157 -0.100921
v -0.605982 -0.053413 -0.438671
v -0.602872 -0.204405 -0.396565
v -0.396565 0.204405 -0.602872
v -0.438671 0.053413 -0.605982
v -0.254893 0.005721 -0.705335
v 0.546063 -0.451703 0.245518
v 0.587952 -0.454756 0.100048
v 0.688660 -0.263183 0.137774
v 0.245518 -0.451703 -0.546063
v 0.204405 -0.602872 -0.396565
v 0.705335 0.005721 -0.254893
v 0.742483 0.032157 -0.100921
v 0.602872 0.204405 -0.396565
v 0.438671 -0.053413 -0.605982
v 0.587952 -0.100048 -0.454756
v 0.605982 0.053413 -0.438671
v -0.137774 0.263183 -0.688660
v -0.100921 0.032157 -0.742483
v 0.005721 0.254893 -0.705335
v 0.032157 0.100921 -0.742483
v -0.263183 0.688660 -0.137774
v -0.454756 0.587952 -0.100048
v -0.254893 0.705335 0.005721
v -0.100921 0.742483 0.032157
v 0.005721 0.705335 0.254893
v 0.032157 0.742483 0.100921
v 0.263183 -0.137774 0.688660
v 0.254893 0.005721 0.705335
v 0.100921 0.032157 0.742483
v 0.100048 -0.587952 0.454756
v -0.053413 -0.605982 0.438671
v 0.053413 -0.438671 0.605982
v -0.100048 -0.454756 0.587952
v -0.396565 -0.204405 0.602872
v -0.587952 0.454756 0.100048
v -0.546063 0.451703 0.245518
v -0.605982 0.438671 -0.053413
v -0.688660 0.263183 0.137774
v 0.263183 -0.688660 -0.137774
v 0.032157 -0.742483 -0.100921
v 0.254893 -0.705335 0.005721
v 0.100921 -0.742483 0.032157
v 0.263183 0.137774 -0.688660
v 0.454756 0.100048 -0.587952
v 0.451703 0.245518 -0.546063
v -0.204405 0.602872 -0.396565
v -0.245518 0.451703 -0.546063
v -0.100048 0.587952 0.454756
v -0.137774 0.688660 0.263183
v -0.245518 0.546063 0.451703
v -0.254893 -0.005721 0.705335
v -0.100921 -0.032157 0.742483
v -0.137774 -0.263183 0.688660
v 0.005721 -0.254893 0.705335
v 0.032157 -0.100921 0.742483
v -0.263183 0.137774 0.688660
v -0.705335 0.005721 0.254893
v -0.742483 0.032157 0.100921
v -0.451703 0.546063 -0.245518
v -0.602872 0.396565 -0.204405
v -0.587952 -0.100048 0.454756
v -0.605982 0.053413 0.438671
v -0.438671 -0.053413 0.605982
v -0.454756 0.100048 0.587952
v -0.602872 0.204405 0.396565
v -0.451703 0.245518 0.546063
v -0.099010 0.626297 -0.314982
v -0.099010 -0.626297 0.314982
v 0.099010 0.626297 0.314982
v 0.099010 -0.626297 -0.314982
v -0.099010 -0.314982 -0.626297
v -0.099010 0.314982 0.626297
v 0.099010 -0.314982 0.626297
v 0.099010 0.314982 -0.626297
v 0.626297 -0.099010 0.314982
v 0.626297 0.099010 -0.314982
v -0.626297 -0.099010 -0.314982
v -0.626297 0.099010 0.314982
v 0.626297 -0.314982 -0.099010
v 0.626297 0.314982 0.099010
v -0.626297 -0.314982 0.099010
v -0.626297 0.314982 -0.099010
v -0.314982 -0.099010 0.626297
v -0.314982 0.099010 -0.626297
v 0.314982 -0.099010 -0.626297
v 0.314982 0.099010 0.626297
v -0.314982 0.626297 0.099010
v -0.314982 -0.626297 -0.099010
v 0.314982 0.626297 -0.099010
v 0.314982 -0.626297 0.099010
v -0.494164 -0.280832 -0.422137
v -0.494164 0.280832 0.422137
v 0.494164 -0.280832 0.422137
v 0.494164 0.280832 -0.422137
v -0.494164 -0.422137 0.280832
v -0.494164 0.422137 -0.280832
v 0.494164 -0.422137 -0.280832
v 0.494164 0.422137 0.280832
v -0.280832 -0.494164 0.422137
v -0.280832 0.494164 -0.422137
v 0.280832 -0.494164 -0.422137
v 0.280832 0.494164 0.422137
v -0.280832 -0.422137 -0.494164
v -0.280832 0.422137 0.494164
v 0.280832 -0.422137 0.494164
v 0.280832 0.422137 -0.494164
v -0.422137 -0.494164 -0.280832
v -0.422137 0.494164 0.280832
v 0.422137 -0.494164 0.280832
v 0.422137 0.494164 -0.280832
v -0.422137 -0.280832 0.494164
v -0.422137 0.280832 -0.494164
v 0.422137 -0.280832 -0.494164
v 0.422137 0.280832 0.494164
v 0.076123 0.688307 -0.147319
v 0.076123 -0.688307 0.147319
v -0.076123 0.688307 0.147319
v -0.076123 -0.688307 -0.147319
v 0.076123 -0.147319 -0.688307
v 0.076123 0.147319 0.688307
v -0.076123 -0.147319 0.688307
v -0.076123 0.147319 -0.688307
v 0.688307 0.076123 0.147319
v 0.688307 -0.076123 -0.147319
v -0.688307 0.076123 -0.147319
v -0.688307 -0.076123 0.147319
v 0.688307 -0.147319 0.076123
v 0.688307 0.147319 -0.076123
v -0.688307 -0.147319 -0.076123
v -0.688307 0.147319 0.076123
v -0.147319 0.076123 0.688307
v -0.147319 -0.076123 -0.688307
v 0.147319 0.076123 -0.688307
v 0.147319 -0.076123 0.688307
v -0.147319 0.688307 -0.076123
v -0.147319 -0.688307 0.076123
v 0.147319 0.688307 0.076123
v 0.147319 -0.688307 -0.076123
v -0.592973 0.341097 0.182484
v -0.592973 -0.341097 -0.182484
v 0.592973 0.341097 -0.182484
v 0.592973 -0.341097 0.182484
v -0.592973 0.182484 -0.341097
v -0.592973 -0.182484 0.341097
v 0.592973 0.182484 0.341097
v 0.592973 -0.182484 -0.341097
v 0.341097 -0.592973 -0.182484
v 0.341097 0.592973 0.182484
v -0.341097 -0.592973 0.182484
v -0.341097 0.592973 -0.182484
v 0.341097 0.182484 -0.592973
v 0.341097 -0.182484 0.592973
v -0.341097 0.182484 0.592973
v -0.341097 -0.182484 -0.592973
v 0.182484 -0.592973 0.341097
v 0.182484 0.592973 -0.341097
v -0.182484 -0.592973 -0.341097
v -0.182484 0.592973 0.341097
v 0.182484 0.341097 0.592973
v 0.182484 -0.341097 -0.592973
v -0.182484 0.341097 -0.592973
v -0.182484 -0.341097 0.592973
v -0.500632 -0.500632 0.000000
v -0.500632 0.000000 -0.500632
v -0.500632 0.000000 0.500632
v -0.500632 0.500632 0.000000
v 0.000000 -0.500632 -0.500632
v 0.000000 -0.500632 0.500632
v 0.000000 0.500632 -0.500632
v 0.000000 0.500632 0.500632
v 0.500632 -0.500632 0.000000
v 0.500632 0.000000 -0.500632
v 0.500632 0.000000 0.500632
v 0.500632 0.500632 0.000000
vt 0.048472 0.845568
vt -0.026855 0.863714
vt -0.014375 0.816904
vt 0.019284 0.799437
vt 0.047544 0.776227
vt 0.075746 0.797208
vt 0.108635 0.812566
vt 0.122837 0.865129
vt 0.049094 0.909791
vt 0.003572 0.889592
vt 0.451528 0.154432
vt 0.526855 0.136286
vt 0.514375 0.183096
vt 0.480716 0.200563
vt 0.452456 0.223773
vt 0.424254 0.202792
vt 0.391365 0.187434
vt 0.377163 0.134871
vt 0.450906 0.090209
vt 0.496428 0.110408
vt 0.548472 0.845568
vt 0.608635 0.812566
vt 0.622837 0.865129
vt 0.549094 0.909791
vt 0.503572 0.889592
vt 0.473145 0.863714
vt 0.485625 0.816904
vt 0.519284 0.799437
vt 0.547544 0.776227
vt 0.575746 0.797208
vt 0.951528 0.154432
vt 0.952456 0.223773
vt 0.924254 0.202792
vt 0.891365 0.187434
vt 0.877163 0.134871
vt 0.950906 0.090209
vt 0.996428 0.110408
vt 1.026855 0.136286
vt 1.014375 0.183096
vt 0.980716 0.200563
vt 0.024954 0.353243
vt 0.038900 0.287992
vt 0.052026 0.322660
vt 0.063460 0.358174
vt 0.048504 0.404798
vt 0.014036 0.414158
vt 0.001291 0.389621
vt -0.012174 0.365774
vt -0.009297 0.317745
vt 0.013992 0.301136
vt 0.475046 0.646757
vt 0.461100 0.712008
vt 0.447974 0.677340
vt 0.436540 0.641826
vt 0.451496 0.595202
vt 0.485964 0.585842
vt 0.498709 0.610379
vt 0.512174 0.634226
vt 0.509297 0.682255
vt 0.486008 0.698864
vt 0.524954 0.353243
vt 0.548504 0.404798
vt 0.514036 0.414158
vt 0.501291 0.389621
vt 0.487826 0.365774
vt 0.490703 0.317745
vt 0.513992 0.301136
vt 0.538900 0.287992
vt 0.552026 0.322660
vt 0.563460 0.358174
vt 0.975046 0.646757
vt 1.009297 0.682255
vt 0.986008 0.698864
vt 0.961100 0.712008
vt 0.947974 0.677340
vt 0.936540 0.641826
vt 0.951496 0.595202
vt 0.985964 0.585842
vt 0.998709 0.610379
vt 1.012174 0.634226
vt 0.675836 0.455340
vt 0.682713 0.522212
vt 0.658749 0.515625
vt 0.650275 0.477311
vt 0.641655 0.439063
vt 0.657398 0.412136
vt 0.673903 0.386065
vt 0.700243 0.407427
vt 0.706920 0.472946
vt 0.694809 0.497572
vt 0.824164 0.544660
vt 0.817287 0.477788
vt 0.841251 0.484375
vt 0.849725 0.522689
vt 0.858345 0.560937
vt 0.842602 0.587864
vt 0.826097 0.613935
vt 0.799757 0.592573
vt 0.793080 0.527054
vt 0.805191 0.502428
vt 0.175836 0.455340
vt 0.182713 0.522212
vt 0.158749 0.515625
vt 0.150275 0.477311
vt 0.141655 0.439063
vt 0.157398 0.412136
vt 0.173903 0.386065
vt 0.200243 0.407427
vt 0.206920 0.472946
vt 0.194809 0.497572
vt 0.324164 0.544660
vt 0.317287 0.477788
vt 0.341251 0.484375
vt 0.349725 0.522689
vt 0.358345 0.560937
vt 0.342602 0.587864
vt 0.326097 0.613935
vt 0.299757 0.592573
vt 0.293080 0.527054
vt 0.305191 0.502428
vt 0.774954 0.353243
vt 0.813460 0.358174
vt 0.798504 0.404798
vt 0.764036 0.414158
vt 0.751291 0.389621
vt 0.737826 0.365774
vt 0.740703 0.317745
vt 0.763992 0.301136
vt 0.788900 0.287992
vt 0.802026 0.322660
vt 0.725046 0.646757
vt 0.711100 0.712008
vt 0.697974 0.677340
vt 0.686540 0.641826
vt 0.701496 0.595202
vt 0.735964 0.585842
vt 0.748709 0.610379
vt 0.762174 0.634226
vt 0.759297 0.682255
vt 0.736008 0.698864
vt 0.274954 0.353243
vt 0.313460 0.358174
vt 0.298504 0.404798
vt 0.264036 0.414158
vt 0.251291 0.389621
vt 0.237826 0.365774
vt 0.240703 0.317745
vt 0.263992 0.301136
vt 0.288900 0.287992
vt 0.302026 0.322660
vt 0.225046 0.646757
vt 0.235964 0.585842
vt 0.248709 0.610379
vt 0.262174 0.634226
vt 0.259297 0.682255
vt 0.236008 0.698864
vt 0.211100 0.712008
vt 0.197974 0.677340
vt 0.186540 0.641826
vt 0.201496 0.595202
vt 0.425836 0.455340
vt 0.423903 0.386065
vt 0.450243 0.407427
vt 0.456920 0.472946
vt 0.444809 0.497572
vt 0.432713 0.522212
vt 0.408749 0.515625
vt 0.400275 0.477311
vt 0.391655 0.439063
vt 0.407398 0.412136
vt 0.074164 0.544660
vt 0.076097 0.613935
vt 0.049757 0.592573
vt 0.043080 0.527054
vt 0.055191 0.502428
vt 0.067287 0.477788
vt 0.091251 0.484375
vt 0.099725 0.522689
vt 0.108345 0.560937
vt 0.092602 0.587864
vt 0.925836 0.455340
vt 0.956920 0.472946
vt 0.944809 0.497572
vt 0.932713 0.522212
vt 0.908749 0.515625
vt 0.900275 0.477311
vt 0.891655 0.439063
vt 0.907398 0.412136
vt 0.923903 0.386065
vt 0.950243 0.407427
vt 0.574164 0.544660
vt 0.576097 0.613935
vt 0.549757 0.592573
vt 0.543080 0.527054
vt 0.555191 0.502428
vt 0.567287 0.477788
vt 0.591251 0.484375
vt 0.599725 0.522689
vt 0.608345 0.560937
vt 0.592602 0.587864
vt 0.298472 0.845568
vt 0.358635 0.812566
vt 0.372837 0.865129
vt 0.299094 0.909791
vt 0.253572 0.889592
vt 0.223145 0.863714
vt 0.235625 0.816904
vt 0.269284 0.799437
vt 0.297544 0.776227
vt 0.325746 0.797208
vt 0.201528 0.154432
vt 0.141365 0.187434
vt 0.127163 0.134871
vt 0.200906 0.090209
vt 0.246428 0.110408
vt 0.276855 0.136286
vt 0.264375 0.183096
vt 0.230716 0.200563
vt 0.202456 0.223773
vt 0.174254 0.202792
vt 0.798472 0.845568
vt 0.799094 0.909791
vt 0.753572 0.889592
vt 0.723145 0.863714
vt 0.735625 0.816904
vt 0.769284 0.799437
vt 0.797544 0.776227
vt 0.825746 0.797208
vt 0.858635 0.812566
vt 0.872837 0.865129
vt 0.701528 0.154432
vt 0.700906 0.090209
vt 0.746428 0.110408
vt 0.776855 0.136286
vt 0.764375 0.183096
vt 0.730716 0.200563
vt 0.702456 0.223773
vt 0.674254 0.202792
vt 0.641365 0.187434
vt 0.627163 0.134871
vt 0.137485 0.370171
vt 0.100648 0.357238
vt 0.125000 0.304087
vt 0.164392 0.321209
vt 0.118617 0.430758
vt 0.109993 0.393842
vt 0.362515 0.629829
vt 0.335608 0.678791
vt 0.381383 0.569242
vt 0.390007 0.606158
vt 0.399352 0.642762
vt 0.375000 0.695913
vt 0.637485 0.370171
vt 0.600648 0.357238
vt 0.625000 0.304087
vt 0.664392 0.321209
vt 0.618617 0.430758
vt 0.609993 0.393842
vt 0.862515 0.629829
vt 0.875000 0.695913
vt 0.835608 0.678791
vt 0.881383 0.569242
vt 0.890007 0.606158
vt 0.899352 0.642762
vt 0.332248 0.296661
vt 0.300142 0.245254
vt 0.329238 0.240411
vt 0.358749 0.240987
vt 0.375000 0.304087
vt 0.350648 0.357238
vt 0.167752 0.703339
vt 0.149352 0.642762
vt 0.199858 0.754746
vt 0.170762 0.759589
vt 0.141251 0.759013
vt 0.125000 0.695913
vt 0.832248 0.296661
vt 0.800142 0.245254
vt 0.829238 0.240411
vt 0.858749 0.240987
vt 0.875000 0.304087
vt 0.850648 0.357238
vt 0.667752 0.703339
vt 0.625000 0.695913
vt 0.649352 0.642762
vt 0.699858 0.754746
vt 0.670762 0.759589
vt 0.641251 0.759013
vt 0.406571 0.254086
vt 0.453502 0.269621
vt 0.432752 0.294263
vt 0.414392 0.321209
vt 0.093429 0.745914
vt 0.046498 0.730379
vt 0.067248 0.705737
vt 0.085608 0.678791
vt 0.906571 0.254086
vt 0.953502 0.269621
vt 0.932752 0.294263
vt 0.914392 0.321209
vt 0.593429 0.745914
vt 0.546498 0.730379
vt 0.567248 0.705737
vt 0.585608 0.678791
vt 0.082248 0.296661
vt 0.050142 0.245254
vt 0.079238 0.240411
vt 0.108749 0.240987
vt 0.417752 0.703339
vt 0.449858 0.754746
vt 0.420762 0.759589
vt 0.391251 0.759013
vt 0.582248 0.296661
vt 0.550142 0.245254
vt 0.579238 0.240411
vt 0.608749 0.240987
vt 0.917752 0.703339
vt 0.949858 0.754746
vt 0.920762 0.759589
vt 0.891251 0.759013
vt 0.156571 0.254086
vt 0.203502 0.269621
vt 0.182752 0.294263
vt 0.343429 0.745914
vt 0.296498 0.730379
vt 0.317248 0.705737
vt 0.656571 0.254086
vt 0.703502 0.269621
vt 0.682752 0.294263
vt 0.843429 0.745914
vt 0.796498 0.730379
vt 0.817248 0.705737
vt 0.387485 0.370171
vt 0.368617 0.430758
vt 0.359993 0.393842
vt 0.112515 0.629829
vt 0.131383 0.569242
vt 0.140007 0.606158
vt 0.887485 0.370171
vt 0.868617 0.430758
vt 0.859993 0.393842
vt 0.612515 0.629829
vt 0.631383 0.569242
vt 0.640007 0.606158
vt 0.924094 0.924748
vt 0.861594 1.000000
vt 0.799094 0.954895
vt 0.923246 0.870368
vt 0.973145 0.863714
vt 1.003572 0.889592
vt 1.049094 0.909791
vt 1.049094 0.954895
vt 0.986594 1.000000
vt 0.575906 0.075252
vt 0.576754 0.129632
vt 0.450906 0.045105
vt 0.513406 0.000000
vt 0.638406 0.000000
vt 0.700906 0.045105
vt 0.424094 0.924748
vt 0.423246 0.870368
vt 0.549094 0.954895
vt 0.486594 1.000000
vt 0.361594 1.000000
vt 0.299094 0.954895
vt 0.075906 0.075252
vt 0.076754 0.129632
vt 0.026855 0.136286
vt -0.003572 0.110408
vt -0.049094 0.090209
vt -0.049094 0.045105
vt 0.013406 0.000000
vt 0.138406 0.000000
vt 0.200906 0.045105
vt 0.982470 0.433279
vt 0.968574 0.385872
vt 0.987826 0.365774
vt 1.001291 0.389621
vt 1.014036 0.414158
vt 1.006889 0.457038
vt 1.000000 0.500000
vt 0.978499 0.486348
vt 0.517530 0.566721
vt 0.531426 0.614128
vt 0.493111 0.542962
vt 0.500000 0.500000
vt 0.521501 0.513652
vt 0.482470 0.433279
vt 0.468574 0.385872
vt 0.506889 0.457038
vt 0.478499 0.486348
vt 0.017530 0.566721
vt 0.012174 0.634226
vt -0.001291 0.610379
vt -0.014036 0.585842
vt -0.006889 0.542962
vt 0.000000 0.500000
vt 0.021501 0.513652
vt 0.031426 0.614128
vt 0.716442 0.534290
vt 0.728499 0.486348
vt 0.750000 0.500000
vt 0.743111 0.542962
vt 0.691902 0.558807
vt 0.783558 0.465710
vt 0.808098 0.441193
vt 0.771501 0.513652
vt 0.756889 0.457038
vt 0.216442 0.534290
vt 0.191902 0.558807
vt 0.228499 0.486348
vt 0.250000 0.500000
vt 0.243111 0.542962
vt 0.283558 0.465710
vt 0.308098 0.441193
vt 0.271501 0.513652
vt 0.256889 0.457038
vt 0.732470 0.433279
vt 0.718574 0.385872
vt 0.767530 0.566721
vt 0.781426 0.614128
vt 0.232470 0.433279
vt 0.218574 0.385872
vt 0.267530 0.566721
vt 0.281426 0.614128
vt 0.466442 0.534290
vt 0.441902 0.558807
vt 0.033558 0.465710
vt 0.058098 0.441193
vt 0.006889 0.457038
vt 0.966442 0.534290
vt 0.993111 0.542962
vt 0.941902 0.558807
vt 0.533558 0.465710
vt 0.558098 0.441193
vt 0.174094 0.924748
vt 0.173246 0.870368
vt 0.236594 1.000000
vt 0.111594 1.000000
vt 0.049094 0.954895
vt 0.325906 0.075252
vt 0.263406 0.000000
vt 0.388406 0.000000
vt 0.326754 0.129632
vt 0.674094 0.924748
vt 0.611594 1.000000
vt 0.673246 0.870368
vt 0.736594 1.000000
vt 0.825906 0.075252
vt 0.826754 0.129632
vt 0.763406 0.000000
vt 0.888406 0.000000
vt 0.950906 0.045105
vt 0.297515 0.660008
vt 0.276826 0.707363
vt 0.202485 0.339992
vt 0.223174 0.292637
vt 0.797515 0.660008
vt 0.776826 0.707363
vt 0.702485 0.339992
vt 0.723174 0.292637
vt 0.166920 0.582980
vt 0.145221 0.542589
vt 0.333080 0.417020
vt 0.354779 0.457411
vt 0.666920 0.582980
vt 0.645221 0.542589
vt 0.833080 0.417020
vt 0.854779 0.457411
vt 0.828185 0.183998
vt 0.784466 0.213209
vt 0.671815 0.816002
vt 0.715534 0.786791
vt 0.328185 0.183998
vt 0.284466 0.213209
vt 0.171815 0.816002
vt 0.215534 0.786791
vt 0.916920 0.582980
vt 0.895221 0.542589
vt 0.583080 0.417020
vt 0.604779 0.457411
vt 0.416920 0.582980
vt 0.395221 0.542589
vt 0.083080 0.417020
vt 0.104779 0.457411
vt 0.578185 0.183998
vt 0.534466 0.213209
vt 0.921815 0.816002
vt 0.965534 0.786791
vt 0.985625 0.816904
vt 0.078185 0.183998
vt 0.014375 0.183096
vt 0.034466 0.213209
vt 0.421815 0.816002
vt 0.465534 0.786791
vt 0.547515 0.660008
vt 0.526826 0.707363
vt 0.952485 0.339992
vt 0.973174 0.292637
vt 0.990703 0.317745
vt 0.047515 0.660008
vt 0.009297 0.682255
vt 0.026826 0.707363
vt 0.452485 0.339992
vt 0.473174 0.292637
vt 0.250000 0.250000
vt 0.125000 0.500000
vt 0.375000 0.500000
vt 0.250000 0.750000
vt 1.000000 0.250000
vt 1.050142 0.245254
vt 1.038900 0.287992
vt 1.013992 0.301136
vt 1.034466 0.213209
vt 0.500000 0.250000
vt 1.000000 0.750000
vt 1.046498 0.730379
vt 1.047544 0.776227
vt 1.019284 0.799437
vt 1.026826 0.707363
vt 0.500000 0.750000
vt 0.750000 0.250000
vt 0.875000 0.500000
vt 0.625000 0.500000
vt 0.750000 0.750000
vn -0.139845 0.884600 -0.444890
vn -0.345990 0.817642 -0.460167
vn -0.322376 0.888392 -0.326854
vn -0.219018 0.942423 -0.252724
vn -0.082812 0.964468 -0.250886
vn 0.027993 0.945734 -0.323733
vn 0.077169 0.895766 -0.437776
vn 0.017236 0.815744 -0.578156
vn -0.192607 0.763305 -0.616659
vn -0.294096 0.779373 -0.553250
vn -0.139845 -0.884600 0.444890
vn -0.345990 -0.817642 0.460167
vn -0.322376 -0.888392 0.326854
vn -0.219018 -0.942423 0.252724
vn -0.082812 -0.964468 0.250886
vn 0.027993 -0.945734 0.323733
vn 0.077169 -0.895766 0.437776
vn 0.017236 -0.815744 0.578156
vn -0.192607 -0.763305 0.616659
vn -0.294096 -0.779373 0.553250
vn 0.139845 0.884600 0.444890
vn -0.077169 0.895766 0.437776
vn -0.017236 0.815744 0.578156
vn 0.192607 0.763305 0.616659
vn 0.294096 0.779373 0.553250
vn 0.345990 0.817642 0.460167
vn 0.322376 0.888392 0.326854
vn 0.219018 0.942423 0.252724
vn 0.082812 0.964468 0.250886
vn -0.027993 0.945734 0.323733
vn 0.139845 -0.884600 -0.444890
vn 0.082812 -0.964468 -0.250886
vn -0.027993 -0.945734 -0.323733
vn -0.077169 -0.895766 -0.437776
vn -0.017236 -0.815744 -0.578156
vn 0.192607 -0.763305 -0.616659
vn 0.294096 -0.779373 -0.553250
vn 0.345990 -0.817642 -0.460167
vn 0.322376 -0.888392 -0.326854
vn 0.219018 -0.942423 -0.252724
vn -0.139845 -0.444890 -0.884600
vn -0.082812 -0.250886 -0.964468
vn 0.027993 -0.323733 -0.945734
vn 0.077169 -0.437776 -0.895766
vn 0.017236 -0.578156 -0.815744
vn -0.192607 -0.616659 -0.763305
vn -0.294096 -0.553250 -0.779373
vn -0.345990 -0.460167 -0.817642
vn -0.322376 -0.326854 -0.888392
vn -0.219018 -0.252724 -0.942423
vn -0.139845 0.444890 0.884600
vn -0.082812 0.250886 0.964468
vn 0.027993 0.323733 0.945734
vn 0.077169 0.437776 0.895766
vn 0.017236 0.578156 0.815744
vn -0.192607 0.616659 0.763305
vn -0.294096 0.553250 0.779373
vn -0.345990 0.460167 0.817642
vn -0.322376 0.326854 0.888392
vn -0.219018 0.252724 0.942423
vn 0.139845 -0.444890 0.884600
vn -0.017236 -0.578156 0.815744
vn 0.192607 -0.616659 0.763305
vn 0.294096 -0.553250 0.779373
vn 0.345990 -0.460167 0.817642
vn 0.322376 -0.326854 0.888392
vn 0.219018 -0.252724 0.942423
vn 0.082812 -0.250886 0.964468
vn -0.027993 -0.323733 0.945734
vn -0.077169 -0.437776 0.895766
vn 0.139845 0.444890 -0.884600
vn 0.322376 0.326854 -0.888392
vn 0.219018 0.252724 -0.942423
vn 0.082812 0.250886 -0.964468
vn -0.027993 0.323733 -0.945734
vn -0.077169 0.437776 -0.895766
vn -0.017236 0.578156 -0.815744
vn 0.192607 0.616659 -0.763305
vn 0.294096 0.553250 -0.779373
vn 0.345990 0.460167 -0.817642
vn 0.884600 -0.139845 0.444890
vn 0.817642 -0.345990 0.460167
vn 0.888392 -0.322376 0.326854
vn 0.942423 -0.219018 0.252724
vn 0.964468 -0.082812 0.250886
vn 0.945734 0.027993 0.323733
vn 0.895766 0.077169 0.437776
vn 0.815744 0.017236 0.578156
vn 0.763305 -0.192607 0.616659
vn 0.779373 -0.294096 0.553250
vn 0.884600 0.139845 -0.444890
vn 0.817642 0.345990 -0.460167
vn 0.888392 0.322376 -0.326854
vn 0.942423 0.219018 -0.252724
vn 0.964468 0.082812 -0.250886
vn 0.945734 -0.027993 -0.323733
vn 0.895766 -0.077169 -0.437776
vn 0.815744 -0.017236 -0.578156
vn 0.763305 0.192607 -0.616659
vn 0.779373 0.294096 -0.553250
vn -0.884600 -0.139845 -0.444890
vn -0.817642 -0.345990 -0.460167
vn -0.888392 -0.322376 -0.326854
vn -0.942423 -0.219018 -0.252724
vn -0.964468 -0.082812 -0.250886
vn -0.945734 0.027993 -0.323733
vn -0.895766 0.077169 -0.437776
vn -0.815744 0.017236 -0.578156
vn -0.763305 -0.192607 -0.616659
vn -0.779373 -0.294096 -0.553250
vn -0.884600 0.139845 0.444890
vn -0.817642 0.345990 0.460167
vn -0.888392 0.322376 0.326854
vn -0.942423 0.219018 0.252724
vn -0.964468 0.082812 0.250886
vn -0.945734 -0.027993 0.323733
vn -0.895766 -0.077169 0.437776
vn -0.815744 -0.017236 0.578156
vn -0.763305 0.192607 0.616659
vn -0.779373 0.294096 0.553250
vn 0.884600 -0.444890 -0.139845
vn 0.895766 -0.437776 0.077169
vn 0.815744 -0.578156 0.017236
vn 0.763305 -0.616659 -0.192607
vn 0.779373 -0.553250 -0.294096
vn 0.817642 -0.460167 -0.345990
vn 0.888392 -0.326854 -0.322376
vn 0.942423 -0.252724 -0.219018
vn 0.964468 -0.250886 -0.082812
vn 0.945734 -0.323733 0.027993
vn 0.884600 0.444890 0.139845
vn 0.964468 0.250886 0.082812
vn 0.945734 0.323733 -0.027993
vn 0.895766 0.437776 -0.077169
vn 0.815744 0.578156 -0.017236
vn 0.763305 0.616659 0.192607
vn 0.779373 0.553250 0.294096
vn 0.817642 0.460167 0.345990
vn 0.888392 0.326854 0.322376
vn 0.942423 0.252724 0.219018
vn -0.884600 -0.444890 0.139845
vn -0.895766 -0.437776 -0.077169
vn -0.815744 -0.578156 -0.017236
vn -0.763305 -0.616659 0.192607
vn -0.779373 -0.553250 0.294096
vn -0.817642 -0.460167 0.345990
vn -0.888392 -0.326854 0.322376
vn -0.942423 -0.252724 0.219018
vn -0.964468 -0.250886 0.082812
vn -0.945734 -0.323733 -0.027993
vn -0.884600 0.444890 -0.139845
vn -0.763305 0.616659 -0.192607
vn -0.779373 0.553250 -0.294096
vn -0.817642 0.460167 -0.345990
vn -0.888392 0.326854 -0.322376
vn -0.942423 0.252724 -0.219018
vn -0.964468 0.250886 -0.082812
vn -0.945734 0.323733 0.027993
vn -0.895766 0.437776 0.077169
vn -0.815744 0.578156 0.017236
vn -0.444890 -0.139845 0.884600
vn -0.437776 0.077169 0.895766
vn -0.578156 0.017236 0.815744
vn -0.616659 -0.192607 0.763305
vn -0.553250 -0.294096 0.779373
vn -0.460167 -0.345990 0.817642
vn -0.326854 -0.322376 0.888392
vn -0.252724 -0.219018 0.942423
vn -0.250886 -0.082812 0.964468
vn -0.323733 0.027993 0.945734
vn -0.444890 0.139845 -0.884600
vn -0.437776 -0.077169 -0.895766
vn -0.578156 -0.017236 -0.815744
vn -0.616659 0.192607 -0.763305
vn -0.553250 0.294096 -0.779373
vn -0.460167 0.345990 -0.817642
vn -0.326854 0.322376 -0.888392
vn -0.252724 0.219018 -0.942423
vn -0.250886 0.082812 -0.964468
vn -0.323733 -0.027993 -0.945734
vn 0.444890 -0.139845 -0.884600
vn 0.616659 -0.192607 -0.763305
vn 0.553250 -0.294096 -0.779373
vn 0.460167 -0.345990 -0.817642
vn 0.326854 -0.322376 -0.888392
vn 0.252724 -0.219018 -0.942423
vn 0.250886 -0.082812 -0.964468
vn 0.323733 0.027993 -0.945734
vn 0.437776 0.077169 -0.895766
vn 0.578156 0.017236 -0.815744
vn 0.444890 0.139845 0.884600
vn 0.437776 -0.077169 0.895766
vn 0.578156 -0.017236 0.815744
vn 0.616659 0.192607 0.763305
vn 0.553250 0.294096 0.779373
vn 0.460167 0.345990 0.817642
vn 0.326854 0.322376 0.888392
vn 0.252724 0.219018 0.942423
vn 0.250886 0.082812 0.964468
vn 0.323733 -0.027993 0.945734
vn -0.444890 0.884600 0.139845
vn -0.437776 0.895766 -0.077169
vn -0.578156 0.815744 -0.017236
vn -0.616659 0.763305 0.192607
vn -0.553250 0.779373 0.294096
vn -0.460167 0.817642 0.345990
vn -0.326854 0.888392 0.322376
vn -0.252724 0.942423 0.219018
vn -0.250886 0.964468 0.082812
vn -0.323733 0.945734 -0.027993
vn -0.444890 -0.884600 -0.139845
vn -0.437776 -0.895766 0.077169
vn -0.578156 -0.815744 0.017236
vn -0.616659 -0.763305 -0.192607
vn -0.553250 -0.779373 -0.294096
vn -0.460167 -0.817642 -0.345990
vn -0.326854 -0.888392 -0.322376
vn -0.252724 -0.942423 -0.219018
vn -0.250886 -0.964468 -0.082812
vn -0.323733 -0.945734 0.027993
vn 0.444890 0.884600 -0.139845
vn 0.616659 0.763305 -0.192607
vn 0.553250 0.779373 -0.294096
vn 0.460167 0.817642 -0.345990
vn 0.326854 0.888392 -0.322376
vn 0.252724 0.942423 -0.219018
vn 0.250886 0.964468 -0.082812
vn 0.323733 0.945734 0.027993
vn 0.437776 0.895766 0.077169
vn 0.578156 0.815744 0.017236
vn 0.444890 -0.884600 0.139845
vn 0.616659 -0.763305 0.192607
vn 0.553250 -0.779373 0.294096
vn 0.460167 -0.817642 0.345990
vn 0.326854 -0.888392 0.322376
vn 0.252724 -0.942423 0.219018
vn 0.250886 -0.964468 0.082812
vn 0.323733 -0.945734 -0.027993
vn 0.437776 -0.895766 -0.077169
vn 0.578156 -0.815744 -0.017236
vn -0.697971 -0.396655 -0.596239
vn -0.833191 -0.340545 -0.435685
vn -0.785196 -0.197699 -0.586841
vn -0.635959 -0.240011 -0.733451
vn -0.531418 -0.424193 -0.733250
vn -0.539268 -0.531325 -0.653363
vn -0.600052 -0.584267 -0.546415
vn -0.699962 -0.556035 -0.448193
vn -0.784857 -0.464177 -0.410534
vn -0.697971 0.396655 0.596239
vn -0.635959 0.240011 0.733451
vn -0.531418 0.424193 0.733250
vn -0.539268 0.531325 0.653363
vn -0.600052 0.584267 0.546415
vn -0.699962 0.556035 0.448193
vn -0.784857 0.464177 0.410534
vn -0.833191 0.340545 0.435685
vn -0.785196 0.197699 0.586841
vn 0.697971 -0.396655 0.596239
vn 0.833191 -0.340545 0.435685
vn 0.785196 -0.197699 0.586841
vn 0.635959 -0.240011 0.733451
vn 0.531418 -0.424193 0.733250
vn 0.539268 -0.531325 0.653363
vn 0.600052 -0.584267 0.546415
vn 0.699962 -0.556035 0.448193
vn 0.784857 -0.464177 0.410534
vn 0.697971 0.396655 -0.596239
vn 0.785196 0.197699 -0.586841
vn 0.635959 0.240011 -0.733451
vn 0.531418 0.424193 -0.733250
vn 0.539268 0.531325 -0.653363
vn 0.600052 0.584267 -0.546415
vn 0.699962 0.556035 -0.448193
vn 0.784857 0.464177 -0.410534
vn 0.833191 0.340545 -0.435685
vn -0.697971 -0.596239 0.396655
vn -0.600052 -0.546415 0.584267
vn -0.699962 -0.448193 0.556035
vn -0.784857 -0.410534 0.464177
vn -0.833191 -0.435685 0.340545
vn -0.785196 -0.586841 0.197699
vn -0.635959 -0.733451 0.240011
vn -0.531418 -0.733250 0.424193
vn -0.539268 -0.653363 0.531325
vn -0.697971 0.596239 -0.396655
vn -0.635959 0.733451 -0.240011
vn -0.531418 0.733250 -0.424193
vn -0.539268 0.653363 -0.531325
vn -0.600052 0.546415 -0.584267
vn -0.699962 0.448193 -0.556035
vn -0.784857 0.410534 -0.464177
vn -0.833191 0.435685 -0.340545
vn -0.785196 0.586841 -0.197699
vn 0.697971 -0.596239 -0.396655
vn 0.600052 -0.546415 -0.584267
vn 0.699962 -0.448193 -0.556035
vn 0.784857 -0.410534 -0.464177
vn 0.833191 -0.435685 -0.340545
vn 0.785196 -0.586841 -0.197699
vn 0.635959 -0.733451 -0.240011
vn 0.531418 -0.733250 -0.424193
vn 0.539268 -0.653363 -0.531325
vn 0.697971 0.596239 0.396655
vn 0.785196 0.586841 0.197699
vn 0.635959 0.733451 0.240011
vn 0.531418 0.733250 0.424193
vn 0.539268 0.653363 0.531325
vn 0.600052 0.546415 0.584267
vn 0.699962 0.448193 0.556035
vn 0.784857 0.410534 0.464177
vn 0.833191 0.435685 0.340545
vn -0.396655 -0.697971 0.596239
vn -0.240011 -0.635959 0.733451
vn -0.424193 -0.531418 0.733250
vn -0.531325 -0.539268 0.653363
vn -0.584267 -0.600052 0.546415
vn -0.556035 -0.699962 0.448193
vn -0.464177 -0.784857 0.410534
vn -0.340545 -0.833191 0.435685
vn -0.197699 -0.785196 0.586841
vn -0.396655 0.697971 -0.596239
vn -0.584267 0.600052 -0.546415
vn -0.556035 0.699962 -0.448193
vn -0.464177 0.784857 -0.410534
vn -0.340545 0.833191 -0.435685
vn -0.197699 0.785196 -0.586841
vn -0.240011 0.635959 -0.733451
vn -0.424193 0.531418 -0.733250
vn -0.531325 0.539268 -0.653363
vn 0.396655 -0.697971 -0.596239
vn 0.240011 -0.635959 -0.733451
vn 0.424193 -0.531418 -0.733250
vn 0.531325 -0.539268 -0.653363
vn 0.584267 -0.600052 -0.546415
vn 0.556035 -0.699962 -0.448193
vn 0.464177 -0.784857 -0.410534
vn 0.340545 -0.833191 -0.435685
vn 0.197699 -0.785196 -0.586841
vn 0.396655 0.697971 0.596239
vn 0.197699 0.785196 0.586841
vn 0.240011 0.635959 0.733451
vn 0.424193 0.531418 0.733250
vn 0.531325 0.539268 0.653363
vn 0.584267 0.600052 0.546415
vn 0.556035 0.699962 0.448193
vn 0.464177 0.784857 0.410534
vn 0.340545 0.833191 0.435685
vn -0.396655 -0.596239 -0.697971
vn -0.556035 -0.448193 -0.699962
vn -0.464177 -0.410534 -0.784857
vn -0.340545 -0.435685 -0.833191
vn -0.197699 -0.586841 -0.785196
vn -0.240011 -0.733451 -0.635959
vn -0.424193 -0.733250 -0.531418
vn -0.531325 -0.653363 -0.539268
vn -0.584267 -0.546415 -0.600052
vn -0.396655 0.596239 0.697971
vn -0.556035 0.448193 0.699962
vn -0.464177 0.410534 0.784857
vn -0.340545 0.435685 0.833191
vn -0.197699 0.586841 0.785196
vn -0.240011 0.733451 0.635959
vn -0.424193 0.733250 0.531418
vn -0.531325 0.653363 0.539268
vn -0.584267 0.546415 0.600052
vn 0.396655 -0.596239 0.697971
vn 0.424193 -0.733250 0.531418
vn 0.531325 -0.653363 0.539268
vn 0.584267 -0.546415 0.600052
vn 0.556035 -0.448193 0.699962
vn 0.464177 -0.410534 0.784857
vn 0.340545 -0.435685 0.833191
vn 0.197699 -0.586841 0.785196
vn 0.240011 -0.733451 0.635959
vn 0.396655 0.596239 -0.697971
vn 0.556035 0.448193 -0.699962
vn 0.464177 0.410534 -0.784857
vn 0.340545 0.435685 -0.833191
vn 0.197699 0.586841 -0.785196
vn 0.240011 0.733451 -0.635959
vn 0.424193 0.733250 -0.531418
vn 0.531325 0.653363 -0.539268
vn 0.584267 0.546415 -0.600052
vn -0.596239 -0.697971 -0.396655
vn -0.733250 -0.531418 -0.424193
vn -0.653363 -0.539268 -0.531325
vn -0.546415 -0.600052 -0.584267
vn -0.448193 -0.699962 -0.556035
vn -0.410534 -0.784857 -0.464177
vn -0.435685 -0.833191 -0.340545
vn -0.586841 -0.785196 -0.197699
vn -0.733451 -0.635959 -0.240011
vn -0.596239 0.697971 0.396655
vn -0.448193 0.699962 0.556035
vn -0.410534 0.784857 0.464177
vn -0.435685 0.833191 0.340545
vn -0.586841 0.785196 0.197699
vn -0.733451 0.635959 0.240011
vn -0.733250 0.531418 0.424193
vn -0.653363 0.539268 0.531325
vn -0.546415 0.600052 0.584267
vn 0.596239 -0.697971 0.396655
vn 0.546415 -0.600052 0.584267
vn 0.448193 -0.699962 0.556035
vn 0.410534 -0.784857 0.464177
vn 0.435685 -0.833191 0.340545
vn 0.586841 -0.785196 0.197699
vn 0.733451 -0.635959 0.240011
vn 0.733250 -0.531418 0.424193
vn 0.653363 -0.539268 0.531325
vn 0.596239 0.697971 -0.396655
vn 0.586841 0.785196 -0.197699
vn 0.733451 0.635959 -0.240011
vn 0.733250 0.531418 -0.424193
vn 0.653363 0.539268 -0.531325
vn 0.546415 0.600052 -0.584267
vn 0.448193 0.699962 -0.556035
vn 0.410534 0.784857 -0.464177
vn 0.435685 0.833191 -0.340545
vn -0.596239 -0.396655 0.697971
vn -0.586841 -0.197699 0.785196
vn -0.733451 -0.240011 0.635959
vn -0.733250 -0.424193 0.531418
vn -0.653363 -0.531325 0.539268
vn -0.546415 -0.584267 0.600052
vn -0.448193 -0.556035 0.699962
vn -0.410534 -0.464177 0.784857
vn -0.435685 -0.340545 0.833191
vn -0.596239 0.396655 -0.697971
vn -0.448193 0.556035 -0.699962
vn -0.410534 0.464177 -0.784857
vn -0.435685 0.340545 -0.833191
vn -0.586841 0.197699 -0.785196
vn -0.733451 0.240011 -0.635959
vn -0.733250 0.424193 -0.531418
vn -0.653363 0.531325 -0.539268
vn -0.546415 0.584267 -0.600052
vn 0.596239 -0.396655 -0.697971
vn 0.546415 -0.584267 -0.600052
vn 0.448193 -0.556035 -0.699962
vn 0.410534 -0.464177 -0.784857
vn 0.435685 -0.340545 -0.833191
vn 0.586841 -0.197699 -0.785196
vn 0.733451 -0.240011 -0.635959
vn 0.733250 -0.424193 -0.531418
vn 0.653363 -0.531325 -0.539268
vn 0.596239 0.396655 0.697971
vn 0.733451 0.240011 0.635959
vn 0.733250 0.424193 0.531418
vn 0.653363 0.531325 0.539268
vn 0.546415 0.584267 0.600052
vn 0.448193 0.556035 0.699962
vn 0.410534 0.464177 0.784857
vn 0.435685 0.340545 0.833191
vn 0.586841 0.197699 0.785196
vn 0.107518 0.972185 -0.208077
vn 0.201726 0.898274 -0.390397
vn 0.068532 0.909283 -0.410496
vn -0.068250 0.941115 -0.331127
vn -0.089290 0.989021 -0.117752
vn 0.006998 0.999788 -0.019339
vn 0.140837 0.990015 0.005895
vn 0.242459 0.969354 -0.039581
vn 0.309572 0.941115 -0.135899
vn 0.295177 0.909283 -0.293384
vn 0.107518 -0.972185 0.208077
vn -0.089290 -0.989021 0.117752
vn 0.006998 -0.999788 0.019339
vn 0.140837 -0.990015 -0.005895
vn 0.242459 -0.969354 0.039581
vn 0.309572 -0.941115 0.135899
vn 0.295177 -0.909283 0.293384
vn 0.201726 -0.898274 0.390397
vn 0.068532 -0.909283 0.410496
vn -0.068250 -0.941115 0.331127
vn -0.107518 0.972185 0.208077
vn 0.068250 0.941115 0.331127
vn 0.089290 0.989021 0.117752
vn -0.006998 0.999788 0.019339
vn -0.140837 0.990015 -0.005895
vn -0.242459 0.969354 0.039581
vn -0.309572 0.941115 0.135899
vn -0.295177 0.909283 0.293384
vn -0.201726 0.898274 0.390397
vn -0.068532 0.909283 0.410496
vn -0.107518 -0.972185 -0.208077
vn 0.068250 -0.941115 -0.331127
vn 0.089290 -0.989021 -0.117752
vn -0.006998 -0.999788 -0.019339
vn -0.140837 -0.990015 0.005895
vn -0.242459 -0.969354 -0.039581
vn -0.309572 -0.941115 -0.135899
vn -0.295177 -0.909283 -0.293384
vn -0.201726 -0.898274 -0.390397
vn -0.068532 -0.909283 -0.410496
vn 0.107518 -0.208077 -0.972185
vn -0.089290 -0.117752 -0.989021
vn 0.006998 -0.019339 -0.999788
vn 0.140837 0.005895 -0.990015
vn 0.242459 -0.039581 -0.969354
vn 0.309572 -0.135899 -0.941115
vn 0.295177 -0.293384 -0.909283
vn 0.201726 -0.390397 -0.898274
vn 0.068532 -0.410496 -0.909283
vn -0.068250 -0.331127 -0.941115
vn 0.107518 0.208077 0.972185
vn -0.089290 0.117752 0.989021
vn 0.006998 0.019339 0.999788
vn 0.140837 -0.005895 0.990015
vn 0.242459 0.039581 0.969354
vn 0.309572 0.135899 0.941115
vn 0.295177 0.293384 0.909283
vn 0.201726 0.390397 0.898274
vn 0.068532 0.410496 0.909283
vn -0.068250 0.331127 0.941115
vn -0.107518 -0.208077 0.972185
vn 0.068250 -0.331127 0.941115
vn 0.089290 -0.117752 0.989021
vn -0.006998 -0.019339 0.999788
vn -0.140837 0.005895 0.990015
vn -0.242459 -0.039581 0.969354
vn -0.309572 -0.135899 0.941115
vn -0.295177 -0.293384 0.909283
vn -0.201726 -0.390397 0.898274
vn -0.068532 -0.410496 0.909283
vn -0.107518 0.208077 -0.972185
vn -0.140837 -0.005895 -0.990015
vn -0.242459 0.039581 -0.969354
vn -0.309572 0.135899 -0.941115
vn -0.295177 0.293384 -0.909283
vn -0.201726 0.390397 -0.898274
vn -0.068532 0.410496 -0.909283
vn 0.068250 0.331127 -0.941115
vn 0.089290 0.117752 -0.989021
vn -0.006998 0.019339 -0.999788
vn 0.972185 0.107518 0.208077
vn 0.990015 0.140837 -0.005895
vn 0.969354 0.242459 0.039581
vn 0.941115 0.309572 0.135899
vn 0.909283 0.295177 0.293384
vn 0.898274 0.201726 0.390397
vn 0.909283 0.068532 0.410496
vn 0.941115 -0.068250 0.331127
vn 0.989021 -0.089290 0.117752
vn 0.999788 0.006998 0.019339
vn 0.972185 -0.107518 -0.208077
vn 0.989021 0.089290 -0.117752
vn 0.999788 -0.006998 -0.019339
vn 0.990015 -0.140837 0.005895
vn 0.969354 -0.242459 -0.039581
vn 0.941115 -0.309572 -0.135899
vn 0.909283 -0.295177 -0.293384
vn 0.898274 -0.201726 -0.390397
vn 0.909283 -0.068532 -0.410496
vn 0.941115 0.068250 -0.331127
vn -0.972185 0.107518 -0.208077
vn -0.989021 -0.089290 -0.117752
vn -0.999788 0.006998 -0.019339
vn -0.990015 0.140837 0.005895
vn -0.969354 0.242459 -0.039581
vn -0.941115 0.309572 -0.135899
vn -0.909283 0.295177 -0.293384
vn -0.898274 0.201726 -0.390397
vn -0.909283 0.068532 -0.410496
vn -0.941115 -0.068250 -0.331127
vn -0.972185 -0.107518 0.208077
vn -0.989021 0.089290 0.117752
vn -0.999788 -0.006998 0.019339
vn -0.990015 -0.140837 -0.005895
vn -0.969354 -0.242459 0.039581
vn -0.941115 -0.309572 0.135899
vn -0.909283 -0.295177 0.293384
vn -0.898274 -0.201726 0.390397
vn -0.909283 -0.068532 0.410496
vn -0.941115 0.068250 0.331127
vn 0.972185 -0.208077 0.107518
vn 0.898274 -0.390397 0.201726
vn 0.909283 -0.410496 0.068532
vn 0.941115 -0.331127 -0.068250
vn 0.989021 -0.117752 -0.089290
vn 0.999788 -0.019339 0.006998
vn 0.990015 0.005895 0.140837
vn 0.969354 -0.039581 0.242459
vn 0.941115 -0.135899 0.309572
vn 0.909283 -0.293384 0.295177
vn 0.972185 0.208077 -0.107518
vn 0.898274 0.390397 -0.201726
vn 0.909283 0.410496 -0.068532
vn 0.941115 0.331127 0.068250
vn 0.989021 0.117752 0.089290
vn 0.999788 0.019339 -0.006998
vn 0.990015 -0.005895 -0.140837
vn 0.969354 0.039581 -0.242459
vn 0.941115 0.135899 -0.309572
vn 0.909283 0.293384 -0.295177
vn -0.972185 -0.208077 -0.107518
vn -0.941115 -0.135899 -0.309572
vn -0.909283 -0.293384 -0.295177
vn -0.898274 -0.390397 -0.201726
vn -0.909283 -0.410496 -0.068532
vn -0.941115 -0.331127 0.068250
vn -0.989021 -0.117752 0.089290
vn -0.999788 -0.019339 -0.006998
vn -0.990015 0.005895 -0.140837
vn -0.969354 -0.039581 -0.242459
vn -0.972185 0.208077 0.107518
vn -0.898274 0.390397 0.201726
vn -0.909283 0.410496 0.068532
vn -0.941115 0.331127 -0.068250
vn -0.989021 0.117752 -0.089290
vn -0.999788 0.019339 0.006998
vn -0.990015 -0.005895 0.140837
vn -0.969354 0.039581 0.242459
vn -0.941115 0.135899 0.309572
vn -0.909283 0.293384 0.295177
vn -0.208077 0.107518 0.972185
vn -0.117752 -0.089290 0.989021
vn -0.019339 0.006998 0.999788
vn 0.005895 0.140837 0.990015
vn -0.039581 0.242459 0.969354
vn -0.135899 0.309572 0.941115
vn -0.293384 0.295177 0.909283
vn -0.390397 0.201726 0.898274
vn -0.410496 0.068532 0.909283
vn -0.331127 -0.068250 0.941115
vn -0.208077 -0.107518 -0.972185
vn -0.331127 0.068250 -0.941115
vn -0.117752 0.089290 -0.989021
vn -0.019339 -0.006998 -0.999788
vn 0.005895 -0.140837 -0.990015
vn -0.039581 -0.242459 -0.969354
vn -0.135899 -0.309572 -0.941115
vn -0.293384 -0.295177 -0.909283
vn -0.390397 -0.201726 -0.898274
vn -0.410496 -0.068532 -0.909283
vn 0.208077 0.107518 -0.972185
vn 0.390397 0.201726 -0.898274
vn 0.410496 0.068532 -0.909283
vn 0.331127 -0.068250 -0.941115
vn 0.117752 -0.089290 -0.989021
vn 0.019339 0.006998 -0.999788
vn -0.005895 0.140837 -0.990015
vn 0.039581 0.242459 -0.969354
vn 0.135899 0.309572 -0.941115
vn 0.293384 0.295177 -0.909283
vn 0.208077 -0.107518 0.972185
vn -0.005895 -0.140837 0.990015
vn 0.039581 -0.242459 0.969354
vn 0.135899 -0.309572 0.941115
vn 0.293384 -0.295177 0.909283
vn 0.390397 -0.201726 0.898274
vn 0.410496 -0.068532 0.909283
vn 0.331127 0.068250 0.941115
vn 0.117752 0.089290 0.989021
vn 0.019339 -0.006998 0.999788
vn -0.208077 0.972185 -0.107518
vn -0.331127 0.941115 0.068250
vn -0.117752 0.989021 0.089290
vn -0.019339 0.999788 -0.006998
vn 0.005895 0.990015 -0.140837
vn -0.039581 0.969354 -0.242459
vn -0.135899 0.941115 -0.309572
vn -0.293384 0.909283 -0.295177
vn -0.390397 0.898274 -0.201726
vn -0.410496 0.909283 -0.068532
vn -0.208077 -0.972185 0.107518
vn 0.005895 -0.990015 0.140837
vn -0.039581 -0.969354 0.242459
vn -0.135899 -0.941115 0.309572
vn -0.293384 -0.909283 0.295177
vn -0.390397 -0.898274 0.201726
vn -0.410496 -0.909283 0.068532
vn -0.331127 -0.941115 -0.068250
vn -0.117752 -0.989021 -0.089290
vn -0.019339 -0.999788 0.006998
vn 0.208077 0.972185 0.107518
vn 0.390397 0.898274 0.201726
vn 0.410496 0.909283 0.068532
vn 0.331127 0.941115 -0.068250
vn 0.117752 0.989021 -0.089290
vn 0.019339 0.999788 0.006998
vn -0.005895 0.990015 0.140837
vn 0.039581 0.969354 0.242459
vn 0.135899 0.941115 0.309572
vn 0.293384 0.909283 0.295177
vn 0.208077 -0.972185 -0.107518
vn 0.117752 -0.989021 0.089290
vn 0.019339 -0.999788 -0.006998
vn -0.005895 -0.990015 -0.140837
vn 0.039581 -0.969354 -0.242459
vn 0.135899 -0.941115 -0.309572
vn 0.293384 -0.909283 -0.295177
vn 0.390397 -0.898274 -0.201726
vn 0.410496 -0.909283 -0.068532
vn 0.331127 -0.941115 0.068250
vn -0.837532 0.481775 0.257746
vn -0.915877 0.280923 0.286797
vn -0.864201 0.314874 0.392441
vn -0.796424 0.398927 0.454496
vn -0.725009 0.532760 0.436496
vn -0.700969 0.626724 0.340382
vn -0.722627 0.659227 0.207917
vn -0.803877 0.590370 0.072422
vn -0.910702 0.407581 0.067085
vn -0.935234 0.314732 0.162116
vn -0.837532 -0.481775 -0.257746
vn -0.915877 -0.280923 -0.286797
vn -0.864201 -0.314874 -0.392441
vn -0.796424 -0.398927 -0.454496
vn -0.725009 -0.532760 -0.436496
vn -0.700969 -0.626724 -0.340382
vn -0.722627 -0.659227 -0.207917
vn -0.803877 -0.590370 -0.072422
vn -0.910702 -0.407581 -0.067085
vn -0.935234 -0.314732 -0.162116
vn 0.837532 0.481775 -0.257746
vn 0.796424 0.398927 -0.454496
vn 0.725009 0.532760 -0.436496
vn 0.700969 0.626724 -0.340382
vn 0.722627 0.659227 -0.207917
vn 0.803877 0.590370 -0.072422
vn 0.910702 0.407581 -0.067085
vn 0.935234 0.314732 -0.162116
vn 0.915877 0.280923 -0.286797
vn 0.864201 0.314874 -0.392441
vn 0.837532 -0.481775 0.257746
vn 0.915877 -0.280923 0.286797
vn 0.864201 -0.314874 0.392441
vn 0.796424 -0.398927 0.454496
vn 0.725009 -0.532760 0.436496
vn 0.700969 -0.626724 0.340382
vn 0.722627 -0.659227 0.207917
vn 0.803877 -0.590370 0.072422
vn 0.910702 -0.407581 0.067085
vn 0.935234 -0.314732 0.162116
vn -0.837532 0.257746 -0.481775
vn -0.722627 0.207917 -0.659227
vn -0.803877 0.072422 -0.590370
vn -0.910702 0.067085 -0.407581
vn -0.935234 0.162116 -0.314732
vn -0.915877 0.286797 -0.280923
vn -0.864201 0.392441 -0.314874
vn -0.796424 0.454496 -0.398927
vn -0.725009 0.436496 -0.532760
vn -0.700969 0.340382 -0.626724
vn -0.837532 -0.257746 0.481775
vn -0.910702 -0.067085 0.407581
vn -0.935234 -0.162116 0.314732
vn -0.915877 -0.286797 0.280923
vn -0.864201 -0.392441 0.314874
vn -0.796424 -0.454496 0.398927
vn -0.725009 -0.436496 0.532760
vn -0.700969 -0.340382 0.626724
vn -0.722627 -0.207917 0.659227
vn -0.803877 -0.072422 0.590370
vn 0.837532 0.257746 0.481775
vn 0.722627 0.207917 0.659227
vn 0.803877 0.072422 0.590370
vn 0.910702 0.067085 0.407581
vn 0.935234 0.162116 0.314732
vn 0.915877 0.286797 0.280923
vn 0.864201 0.392441 0.314874
vn 0.796424 0.454496 0.398927
vn 0.725009 0.436496 0.532760
vn 0.700969 0.340382 0.626724
vn 0.837532 -0.257746 -0.481775
vn 0.910702 -0.067085 -0.407581
vn 0.935234 -0.162116 -0.314732
vn 0.915877 -0.286797 -0.280923
vn 0.864201 -0.392441 -0.314874
vn 0.796424 -0.454496 -0.398927
vn 0.725009 -0.436496 -0.532760
vn 0.700969 -0.340382 -0.626724
vn 0.722627 -0.207917 -0.659227
vn 0.803877 -0.072422 -0.590370
vn 0.481775 -0.837532 -0.257746
vn 0.532760 -0.725009 -0.436496
vn 0.626724 -0.700969 -0.340382
vn 0.659227 -0.722627 -0.207917
vn 0.590370 -0.803877 -0.072422
vn 0.407581 -0.910702 -0.067085
vn 0.314732 -0.935234 -0.162116
vn 0.280923 -0.915877 -0.286797
vn 0.314874 -0.864201 -0.392441
vn 0.398927 -0.796424 -0.454496
vn 0.481775 0.837532 0.257746
vn 0.407581 0.910702 0.067085
vn 0.314732 0.935234 0.162116
vn 0.280923 0.915877 0.286797
vn 0.314874 0.864201 0.392441
vn 0.398927 0.796424 0.454496
vn 0.532760 0.725009 0.436496
vn 0.626724 0.700969 0.340382
vn 0.659227 0.722627 0.207917
vn 0.590370 0.803877 0.072422
vn -0.481775 -0.837532 0.257746
vn -0.280923 -0.915877 0.286797
vn -0.314874 -0.864201 0.392441
vn -0.398927 -0.796424 0.454496
vn -0.532760 -0.725009 0.436496
vn -0.626724 -0.700969 0.340382
vn -0.659227 -0.722627 0.207917
vn -0.590370 -0.803877 0.072422
vn -0.407581 -0.910702 0.067085
vn -0.314732 -0.935234 0.162116
vn -0.481775 0.837532 -0.257746
vn -0.659227 0.722627 -0.207917
vn -0.590370 0.803877 -0.072422
vn -0.407581 0.910702 -0.067085
vn -0.314732 0.935234 -0.162116
vn -0.280923 0.915877 -0.286797
vn -0.314874 0.864201 -0.392441
vn -0.398927 0.796424 -0.454496
vn -0.532760 0.725009 -0.436496
vn -0.626724 0.700969 -0.340382
vn 0.481775 0.257746 -0.837532
vn 0.532760 0.436496 -0.725009
vn 0.626724 0.340382 -0.700969
vn 0.659227 0.207917 -0.722627
vn 0.590370 0.072422 -0.803877
vn 0.407581 0.067085 -0.910702
vn 0.314732 0.162116 -0.935234
vn 0.280923 0.286797 -0.915877
vn 0.314874 0.392441 -0.864201
vn 0.398927 0.454496 -0.796424
vn 0.481775 -0.257746 0.837532
vn 0.532760 -0.436496 0.725009
vn 0.626724 -0.340382 0.700969
vn 0.659227 -0.207917 0.722627
vn 0.590370 -0.072422 0.803877
vn 0.407581 -0.067085 0.910702
vn 0.314732 -0.162116 0.935234
vn 0.280923 -0.286797 0.915877
vn 0.314874 -0.392441 0.864201
vn 0.398927 -0.454496 0.796424
vn -0.481775 0.257746 0.837532
vn -0.659227 0.207917 0.722627
vn -0.590370 0.072422 0.803877
vn -0.407581 0.067085 0.910702
vn -0.314732 0.162116 0.935234
vn -0.280923 0.286797 0.915877
vn -0.314874 0.392441 0.864201
vn -0.398927 0.454496 0.796424
vn -0.532760 0.436496 0.725009
vn -0.626724 0.340382 0.700969
vn -0.481775 -0.257746 -0.837532
vn -0.280923 -0.286797 -0.915877
vn -0.314874 -0.392441 -0.864201
vn -0.398927 -0.454496 -0.796424
vn -0.532760 -0.436496 -0.725009
vn -0.626724 -0.340382 -0.700969
vn -0.659227 -0.207917 -0.722627
vn -0.590370 -0.072422 -0.803877
vn -0.407581 -0.067085 -0.910702
vn -0.314732 -0.162116 -0.935234
vn 0.257746 -0.837532 0.481775
vn 0.207917 -0.722627 0.659227
vn 0.072422 -0.803877 0.590370
vn 0.067085 -0.910702 0.407581
vn 0.162116 -0.935234 0.314732
vn 0.286797 -0.915877 0.280923
vn 0.392441 -0.864201 0.314874
vn 0.454496 -0.796424 0.398927
vn 0.436496 -0.725009 0.532760
vn 0.340382 -0.700969 0.626724
vn 0.257746 0.837532 -0.481775
vn 0.286797 0.915877 -0.280923
vn 0.392441 0.864201 -0.314874
vn 0.454496 0.796424 -0.398927
vn 0.436496 0.725009 -0.532760
vn 0.340382 0.700969 -0.626724
vn 0.207917 0.722627 -0.659227
vn 0.072422 0.803877 -0.590370
vn 0.067085 0.910702 -0.407581
vn 0.162116 0.935234 -0.314732
vn -0.257746 -0.837532 -0.481775
vn -0.454496 -0.796424 -0.398927
vn -0.436496 -0.725009 -0.532760
vn -0.340382 -0.700969 -0.626724
vn -0.207917 -0.722627 -0.659227
vn -0.072422 -0.803877 -0.590370
vn -0.067085 -0.910702 -0.407581
vn -0.162116 -0.935234 -0.314732
vn -0.286797 -0.915877 -0.280923
vn -0.392441 -0.864201 -0.314874
vn -0.257746 0.837532 0.481775
vn -0.454496 0.796424 0.398927
vn -0.436496 0.725009 0.532760
vn -0.340382 0.700969 0.626724
vn -0.207917 0.722627 0.659227
vn -0.072422 0.803877 0.590370
vn -0.067085 0.910702 0.407581
vn -0.162116 0.935234 0.314732
vn -0.286797 0.915877 0.280923
vn -0.392441 0.864201 0.314874
vn 0.257746 0.481775 0.837532
vn 0.286797 0.280923 0.915877
vn 0.392441 0.314874 0.864201
vn 0.454496 0.398927 0.796424
vn 0.436496 0.532760 0.725009
vn 0.340382 0.626724 0.700969
vn 0.207917 0.659227 0.722627
vn 0.072422 0.590370 0.803877
vn 0.067085 0.407581 0.910702
vn 0.162116 0.314732 0.935234
vn 0.257746 -0.481775 -0.837532
vn 0.207917 -0.659227 -0.722627
vn 0.072422 -0.590370 -0.803877
vn 0.067085 -0.407581 -0.910702
vn 0.162116 -0.314732 -0.935234
vn 0.286797 -0.280923 -0.915877
vn 0.392441 -0.314874 -0.864201
vn 0.454496 -0.398927 -0.796424
vn 0.436496 -0.532760 -0.725009
vn 0.340382 -0.626724 -0.700969
vn -0.257746 0.481775 -0.837532
vn -0.454496 0.398927 -0.796424
vn -0.436496 0.532760 -0.725009
vn -0.340382 0.626724 -0.700969
vn -0.207917 0.659227 -0.722627
vn -0.072422 0.590370 -0.803877
vn -0.067085 0.407581 -0.910702
vn -0.162116 0.314732 -0.935234
vn -0.286797 0.280923 -0.915877
vn -0.392441 0.314874 -0.864201
vn -0.257746 -0.481775 0.837532
vn -0.286797 -0.280923 0.915877
vn -0.392441 -0.314874 0.864201
vn -0.454496 -0.398927 0.796424
vn -0.436496 -0.532760 0.725009
vn -0.340382 -0.626724 0.700969
vn -0.207917 -0.659227 0.722627
vn -0.072422 -0.590370 0.803877
vn -0.067085 -0.407581 0.910702
vn -0.162116 -0.314732 0.935234
vn -0.707107 -0.707107 0.000000
vn -0.617890 -0.762900 -0.190254
vn -0.552433 -0.828873 -0.088252
vn -0.541581 -0.839212 0.049126
vn -0.586454 -0.794731 0.156444
vn -0.663082 -0.717669 0.212776
vn -0.762900 -0.617890 0.190254
vn -0.828873 -0.552433 0.088252
vn -0.839212 -0.541581 -0.049126
vn -0.794731 -0.586454 -0.156444
vn -0.717669 -0.663082 -0.212776
vn -0.707107 0.000000 -0.707107
vn -0.717669 0.212776 -0.663082
vn -0.617890 0.190254 -0.762900
vn -0.552433 0.088252 -0.828873
vn -0.541581 -0.049126 -0.839212
vn -0.586454 -0.156444 -0.794731
vn -0.663082 -0.212776 -0.717669
vn -0.762900 -0.190254 -0.617890
vn -0.828873 -0.088252 -0.552433
vn -0.839212 0.049126 -0.541581
vn -0.794731 0.156444 -0.586454
vn -0.707107 0.000000 0.707107
vn -0.663082 0.212776 0.717669
vn -0.762900 0.190254 0.617890
vn -0.828873 0.088252 0.552433
vn -0.839212 -0.049126 0.541581
vn -0.794731 -0.156444 0.586454
vn -0.717669 -0.212776 0.663082
vn -0.617890 -0.190254 0.762900
vn -0.552433 -0.088252 0.828873
vn -0.541581 0.049126 0.839212
vn -0.586454 0.156444 0.794731
vn -0.707107 0.707107 0.000000
vn -0.762900 0.617890 -0.190254
vn -0.828873 0.552433 -0.088252
vn -0.839212 0.541581 0.049126
vn -0.794731 0.586454 0.156444
vn -0.717669 0.663082 0.212776
vn -0.617890 0.762900 0.190254
vn -0.552433 0.828873 0.088252
vn -0.541581 0.839212 -0.049126
vn -0.586454 0.794731 -0.156444
vn -0.663082 0.717669 -0.212776
vn 0.000000 -0.707107 -0.707107
vn 0.212776 -0.663082 -0.717669
vn 0.190254 -0.762900 -0.617890
vn 0.088252 -0.828873 -0.552433
vn -0.049126 -0.839212 -0.541581
vn -0.156444 -0.794731 -0.586454
vn -0.212776 -0.717669 -0.663082
vn -0.190254 -0.617890 -0.762900
vn -0.088252 -0.552433 -0.828873
vn 0.049126 -0.541581 -0.839212
vn 0.156444 -0.586454 -0.794731
vn 0.000000 -0.707107 0.707107
vn -0.212776 -0.663082 0.717669
vn -0.190254 -0.762900 0.617890
vn -0.088252 -0.828873 0.552433
vn 0.049126 -0.839212 0.541581
vn 0.156444 -0.794731 0.586454
vn 0.212776 -0.717669 0.663082
vn 0.190254 -0.617890 0.762900
vn 0.088252 -0.552433 0.828873
vn -0.049126 -0.541581 0.839212
vn -0.156444 -0.586454 0.794731
vn 0.000000 0.707107 -0.707107
vn 0.212776 0.717669 -0.663082
vn 0.190254 0.617890 -0.762900
vn 0.088252 0.552433 -0.828873
vn -0.049126 0.541581 -0.839212
vn -0.156444 0.586454 -0.794731
vn -0.212776 0.663082 -0.717669
vn -0.190254 0.762900 -0.617890
vn -0.088252 0.828873 -0.552433
vn 0.049126 0.839212 -0.541581
vn 0.156444 0.794731 -0.586454
vn 0.000000 0.707107 0.707107
vn 0.190254 0.762900 0.617890
vn 0.088252 0.828873 0.552433
vn -0.049126 0.839212 0.541581
vn -0.156444 0.794731 0.586454
vn -0.212776 0.717669 0.663082
vn -0.190254 0.617890 0.762900
vn -0.088252 0.552433 0.828873
vn 0.049126 0.541581 0.839212
vn 0.156444 0.586454 0.794731
vn 0.212776 0.663082 0.717669
vn 0.707107 -0.707107 0.000000
vn 0.762900 -0.617890 -0.190254
vn 0.828873 -0.552433 -0.088252
vn 0.839212 -0.541581 0.049126
vn 0.794731 -0.586454 0.156444
vn 0.717669 -0.663082 0.212776
vn 0.617890 -0.762900 0.190254
vn 0.552433 -0.828873 0.088252
vn 0.541581 -0.839212 -0.049126
vn 0.586454 -0.794731 -0.156444
vn 0.663082 -0.717669 -0.212776
vn 0.707107 0.000000 -0.707107
vn 0.839212 -0.049126 -0.541581
vn 0.794731 -0.156444 -0.586454
vn 0.717669 -0.212776 -0.663082
vn 0.617890 -0.190254 -0.762900
vn 0.552433 -0.088252 -0.828873
vn 0.541581 0.049126 -0.839212
vn 0.586454 0.156444 -0.794731
vn 0.663082 0.212776 -0.717669
vn 0.762900 0.190254 -0.617890
vn 0.828873 0.088252 -0.552433
vn 0.707107 0.000000 0.707107
vn 0.663082 -0.212776 0.717669
vn 0.762900 -0.190254 0.617890
vn 0.828873 -0.088252 0.552433
vn 0.839212 0.049126 0.541581
vn 0.794731 0.156444 0.586454
vn 0.717669 0.212776 0.663082
vn 0.617890 0.190254 0.762900
vn 0.552433 0.088252 0.828873
vn 0.541581 -0.049126 0.839212
vn 0.586454 -0.156444 0.794731
vn 0.707107 0.707107 0.000000
vn 0.762900 0.617890 0.190254
vn 0.828873 0.552433 0.088252
vn 0.839212 0.541581 -0.049126
vn 0.794731 0.586454 -0.156444
vn 0.717669 0.663082 -0.212776
vn 0.617890 0.762900 -0.190254
vn 0.552433 0.828873 -0.088252
vn 0.541581 0.839212 0.049126
vn 0.586454 0.794731 0.156444
vn 0.663082 0.717669 0.212776
s off
f 375/1/1 58/2/2 59/3/3
f 375/1/1 59/3/3 271/4/4
f 375/1/1 271/4/4 168/5/5
f 375/1/1 168/5/5 354/6/6
f 375/1/1 354/6/6 165/7/7
f 375/1/1 165/7/7 137/8/8
f 375/1/1 137/8/8 50/9/9
f 375/1/1 50/9/9 260/10/10
f 375/1/1 260/10/10 58/2/2
f 376/11/11 77/12/12 145/13/13
f 376/11/11 145/13/13 339/14/14
f 376/11/11 339/14/14 149/15/15
f 376/11/11 149/15/15 287/16/16
f 376/11/11 287/16/16 80/17/17
f 376/11/11 80/17/17 79/18/18
f 376/11/11 79/18/18 78/19/19
f 376/11/11 78/19/19 285/20/20
f 376/11/11 285/20/20 77/12/12
f 377/21/21 61/22/22 62/23/23
f 377/21/21 62/23/23 141/24/24
f 377/21/21 141/24/24 333/25/25
f 377/21/21 333/25/25 170/26/26
f 377/21/21 170/26/26 169/27/27
f 377/21/21 169/27/27 267/28/28
f 377/21/21 267/28/28 53/29/29
f 377/21/21 53/29/29 266/30/30
f 377/21/21 266/30/30 61/22/22
f 378/31/31 123/32/32 318/33/33
f 378/31/31 318/33/33 122/34/34
f 378/31/31 122/34/34 155/35/35
f 378/31/31 155/35/35 156/36/36
f 378/31/31 156/36/36 295/37/37
f 378/31/31 295/37/37 88/38/38
f 378/31/31 88/38/38 2/39/39
f 378/31/31 2/39/39 210/40/40
f 378/31/31 210/40/40 123/32/32
f 379/41/41 89/42/42 296/43/43
f 379/41/41 296/43/43 92/44/44
f 379/41/41 92/44/44 91/45/45
f 379/41/41 91/45/45 90/46/46
f 379/41/41 90/46/46 298/47/47
f 379/41/41 298/47/47 93/48/48
f 379/41/41 93/48/48 94/49/49
f 379/41/41 94/49/49 297/50/50
f 379/41/41 297/50/50 89/42/42
f 380/51/51 9/52/52 218/53/53
f 380/51/51 218/53/53 181/54/54
f 380/51/51 181/54/54 180/55/55
f 380/51/51 180/55/55 75/56/56
f 380/51/51 75/56/56 283/57/57
f 380/51/51 283/57/57 76/58/58
f 380/51/51 76/58/58 13/59/59
f 380/51/51 13/59/59 217/60/60
f 380/51/51 217/60/60 9/52/52
f 381/61/61 142/62/62 178/63/63
f 381/61/61 178/63/63 362/64/64
f 381/61/61 362/64/64 177/65/65
f 381/61/61 177/65/65 148/66/66
f 381/61/61 148/66/66 340/67/67
f 381/61/61 340/67/67 147/68/68
f 381/61/61 147/68/68 302/69/69
f 381/61/61 302/69/69 95/70/70
f 381/61/61 95/70/70 142/62/62
f 382/71/71 4/72/72 213/73/73
f 382/71/71 213/73/73 5/74/74
f 382/71/71 5/74/74 215/75/75
f 382/71/71 215/75/75 163/76/76
f 382/71/71 163/76/76 164/77/77
f 382/71/71 164/77/77 136/78/78
f 382/71/71 136/78/78 327/79/79
f 382/71/71 327/79/79 135/80/80
f 382/71/71 135/80/80 4/72/72
f 383/81/81 3/82/82 27/83/83
f 383/81/81 27/83/83 233/84/84
f 383/81/81 233/84/84 32/85/85
f 383/81/81 32/85/85 237/86/86
f 383/81/81 237/86/86 117/87/87
f 383/81/81 117/87/87 118/88/88
f 383/81/81 118/88/88 40/89/89
f 383/81/81 40/89/89 211/90/90
f 383/81/81 211/90/90 3/82/82
f 384/91/91 125/92/92 131/93/93
f 384/91/91 131/93/93 324/94/94
f 384/91/91 324/94/94 132/95/95
f 384/91/91 132/95/95 321/96/96
f 384/91/91 321/96/96 127/97/97
f 384/91/91 127/97/97 128/98/98
f 384/91/91 128/98/98 126/99/99
f 384/91/91 126/99/99 319/100/100
f 384/91/91 319/100/100 125/92/92
f 385/101/101 104/102/102 105/103/103
f 385/101/101 105/103/103 309/104/104
f 385/101/101 309/104/104 106/105/105
f 385/101/101 106/105/105 310/106/106
f 385/101/101 310/106/106 107/107/107
f 385/101/101 107/107/107 108/108/108
f 385/101/101 108/108/108 103/109/109
f 385/101/101 103/109/109 307/110/110
f 385/101/101 307/110/110 104/102/102
f 386/111/111 184/112/112 191/113/113
f 386/111/111 191/113/113 370/114/114
f 386/111/111 370/114/114 200/115/115
f 386/111/111 200/115/115 373/116/116
f 386/111/111 373/116/116 196/117/117
f 386/111/111 196/117/117 183/118/118
f 386/111/111 183/118/118 182/119/119
f 386/111/111 182/119/119 365/120/120
f 386/111/111 365/120/120 184/112/112
f 387/121/121 44/122/122 45/123/123
f 387/121/121 45/123/123 39/124/124
f 387/121/121 39/124/124 246/125/125
f 387/121/121 246/125/125 116/126/126
f 387/121/121 116/126/126 115/127/127
f 387/121/121 115/127/127 244/128/128
f 387/121/121 244/128/128 37/129/129
f 387/121/121 37/129/129 243/130/130
f 387/121/121 243/130/130 44/122/122
f 388/131/131 66/132/132 275/133/133
f 388/131/131 275/133/133 69/134/134
f 388/131/131 69/134/134 68/135/135
f 388/131/131 68/135/135 67/136/136
f 388/131/131 67/136/136 277/137/137
f 388/131/131 277/137/137 72/138/138
f 388/131/131 72/138/138 71/139/139
f 388/131/131 71/139/139 276/140/140
f 388/131/131 276/140/140 66/132/132
f 389/141/141 84/142/142 85/143/143
f 389/141/141 85/143/143 33/144/144
f 389/141/141 33/144/144 238/145/145
f 389/141/141 238/145/145 102/146/146
f 389/141/141 102/146/146 101/147/147
f 389/141/141 101/147/147 208/148/148
f 389/141/141 208/148/148 1/149/149
f 389/141/141 1/149/149 207/150/150
f 389/141/141 207/150/150 84/142/142
f 390/151/151 82/152/152 289/153/153
f 390/151/151 289/153/153 154/154/154
f 390/151/151 154/154/154 153/155/155
f 390/151/151 153/155/155 345/156/156
f 390/151/151 345/156/156 189/157/157
f 390/151/151 189/157/157 368/158/158
f 390/151/151 368/158/158 188/159/159
f 390/151/151 188/159/159 47/160/160
f 390/151/151 47/160/160 82/152/152
f 391/161/161 151/162/162 176/163/163
f 391/161/161 176/163/163 175/164/164
f 391/161/161 175/164/164 359/165/165
f 391/161/161 359/165/165 179/166/166
f 391/161/161 179/166/166 194/167/167
f 391/161/161 194/167/167 371/168/168
f 391/161/161 371/168/168 193/169/169
f 391/161/161 193/169/169 342/170/170
f 391/161/161 342/170/170 151/162/162
f 392/171/171 110/172/172 133/173/173
f 392/171/171 133/173/173 134/174/174
f 392/171/171 134/174/174 313/175/175
f 392/171/171 313/175/175 111/176/176
f 392/171/171 111/176/176 112/177/177
f 392/171/171 112/177/177 312/178/178
f 392/171/171 312/178/178 109/179/179
f 392/171/171 109/179/179 311/180/180
f 392/171/171 311/180/180 110/172/172
f 393/181/181 46/182/182 253/183/183
f 393/181/181 253/183/183 159/184/184
f 393/181/181 159/184/184 160/185/185
f 393/181/181 160/185/185 322/186/186
f 393/181/181 322/186/186 129/187/187
f 393/181/181 129/187/187 250/188/188
f 393/181/181 250/188/188 42/189/189
f 393/181/181 42/189/189 41/190/190
f 393/181/181 41/190/190 46/182/182
f 394/191/191 12/192/192 74/193/193
f 394/191/191 74/193/193 144/194/194
f 394/191/191 144/194/194 336/195/195
f 394/191/191 336/195/195 143/196/196
f 394/191/191 143/196/196 30/197/197
f 394/191/191 30/197/197 234/198/198
f 394/191/191 234/198/198 29/199/199
f 394/191/191 29/199/199 221/200/200
f 394/191/191 221/200/200 12/192/192
f 395/201/201 173/202/202 174/203/203
f 395/201/201 174/203/203 140/204/204
f 395/201/201 140/204/204 331/205/205
f 395/201/201 331/205/205 139/206/206
f 395/201/201 139/206/206 138/207/207
f 395/201/201 138/207/207 258/208/208
f 395/201/201 258/208/208 49/209/209
f 395/201/201 49/209/209 259/210/210
f 395/201/201 259/210/210 173/202/202
f 396/211/211 19/212/212 87/213/213
f 396/211/211 87/213/213 86/214/214
f 396/211/211 86/214/214 229/215/215
f 396/211/211 229/215/215 21/216/216
f 396/211/211 21/216/216 22/217/217
f 396/211/211 22/217/217 227/218/218
f 396/211/211 227/218/218 20/219/219
f 396/211/211 20/219/219 226/220/220
f 396/211/211 226/220/220 19/212/212
f 397/221/221 51/222/222 262/223/223
f 397/221/221 262/223/223 65/224/224
f 397/221/221 65/224/224 64/225/225
f 397/221/221 64/225/225 265/226/226
f 397/221/221 265/226/226 52/227/227
f 397/221/221 52/227/227 264/228/228
f 397/221/221 264/228/228 57/229/229
f 397/221/221 57/229/229 56/230/230
f 397/221/221 56/230/230 51/222/222
f 398/231/231 157/232/232 349/233/233
f 398/231/231 349/233/233 158/234/234
f 398/231/231 158/234/234 36/235/235
f 398/231/231 36/235/235 241/236/236
f 398/231/231 241/236/236 35/237/237
f 398/231/231 35/237/237 223/238/238
f 398/231/231 223/238/238 15/239/239
f 398/231/231 15/239/239 14/240/240
f 398/231/231 14/240/240 157/232/232
f 399/241/241 24/242/242 26/243/243
f 399/241/241 26/243/243 99/244/244
f 399/241/241 99/244/244 107/107/245
f 399/241/241 107/107/245 310/106/246
f 399/241/241 310/106/246 106/105/247
f 399/241/241 106/105/247 34/245/248
f 399/241/241 34/245/248 231/246/249
f 399/241/241 231/246/249 24/242/242
f 400/247/250 195/248/251 196/117/252
f 400/247/250 196/117/252 373/116/253
f 400/247/250 373/116/253 200/115/254
f 400/247/250 200/115/254 199/249/255
f 400/247/250 199/249/255 374/250/256
f 400/247/250 374/250/256 198/251/257
f 400/247/250 198/251/257 197/252/258
f 400/247/250 197/252/258 195/248/251
f 401/253/259 96/254/260 98/255/261
f 401/253/259 98/255/261 114/256/262
f 401/253/259 114/256/262 117/87/263
f 401/253/259 117/87/263 237/86/264
f 401/253/259 237/86/264 32/85/265
f 401/253/259 32/85/265 31/257/266
f 401/253/259 31/257/266 236/258/267
f 401/253/259 236/258/267 96/254/260
f 402/259/268 6/260/269 73/261/270
f 402/259/268 73/261/270 127/97/271
f 402/259/268 127/97/271 321/96/272
f 402/259/268 321/96/272 132/95/273
f 402/259/268 132/95/273 161/262/274
f 402/259/268 161/262/274 353/263/275
f 402/259/268 353/263/275 162/264/276
f 402/259/268 162/264/276 6/260/269
f 403/265/277 1/149/278 17/266/279
f 403/265/277 17/266/279 224/267/280
f 403/265/277 224/267/280 18/268/281
f 403/265/277 18/268/281 16/269/282
f 403/265/277 16/269/282 83/270/283
f 403/265/277 83/270/283 84/142/284
f 403/265/277 84/142/284 207/150/285
f 403/265/277 207/150/285 1/149/278
f 404/271/286 187/272/287 188/159/288
f 404/271/286 188/159/288 368/158/289
f 404/271/286 368/158/289 189/157/290
f 404/271/286 189/157/290 190/273/291
f 404/271/286 190/273/291 367/274/292
f 404/271/286 367/274/292 186/275/293
f 404/271/286 186/275/293 185/276/294
f 404/271/286 185/276/294 187/272/287
f 405/277/295 37/129/296 38/278/297
f 405/277/295 38/278/297 245/279/298
f 405/277/295 245/279/298 121/280/299
f 405/277/295 121/280/299 119/281/300
f 405/277/295 119/281/300 43/282/301
f 405/277/295 43/282/301 44/122/302
f 405/277/295 44/122/302 243/130/303
f 405/277/295 243/130/303 37/129/296
f 406/283/304 7/284/305 8/285/306
f 406/283/304 8/285/306 69/134/307
f 406/283/304 69/134/307 275/133/308
f 406/283/304 275/133/308 66/132/309
f 406/283/304 66/132/309 63/286/310
f 406/283/304 63/286/310 272/287/311
f 406/283/304 272/287/311 60/288/312
f 406/283/304 60/288/312 7/284/305
f 407/289/313 18/268/314 80/17/315
f 407/289/313 80/17/315 287/16/316
f 407/289/313 287/16/316 149/15/317
f 407/289/313 149/15/317 150/290/318
f 407/289/313 150/290/318 288/291/319
f 407/289/313 288/291/319 81/292/320
f 407/289/313 81/292/320 16/269/321
f 407/289/313 16/269/321 18/268/314
f 408/293/322 168/5/323 167/294/324
f 408/293/322 167/294/324 355/295/325
f 408/293/322 355/295/325 166/296/326
f 408/293/322 166/296/326 185/276/327
f 408/293/322 185/276/327 186/275/328
f 408/293/322 186/275/328 165/7/329
f 408/293/322 165/7/329 354/6/330
f 408/293/322 354/6/330 168/5/323
f 409/297/331 121/280/332 122/34/333
f 409/297/331 122/34/333 318/33/334
f 409/297/331 318/33/334 123/32/335
f 409/297/331 123/32/335 124/298/336
f 409/297/331 124/298/336 317/299/337
f 409/297/331 317/299/337 120/300/338
f 409/297/331 120/300/338 119/281/339
f 409/297/331 119/281/339 121/280/332
f 410/301/340 7/284/341 60/288/342
f 410/301/340 60/288/342 61/22/343
f 410/301/340 61/22/343 266/30/344
f 410/301/340 266/30/344 53/29/345
f 410/301/340 53/29/345 10/302/346
f 410/301/340 10/302/346 219/303/347
f 410/301/340 219/303/347 11/304/348
f 410/301/340 11/304/348 7/284/341
f 411/305/349 23/306/350 230/307/351
f 411/305/349 230/307/351 25/308/352
f 411/305/349 25/308/352 26/243/353
f 411/305/349 26/243/353 24/242/354
f 411/305/349 24/242/354 92/44/355
f 411/305/349 92/44/355 296/43/356
f 411/305/349 296/43/356 89/42/357
f 411/305/349 89/42/357 23/306/350
f 412/309/358 171/310/359 358/311/360
f 412/309/358 358/311/360 172/312/361
f 412/309/358 172/312/361 197/252/362
f 412/309/358 197/252/362 198/251/363
f 412/309/358 198/251/363 181/54/364
f 412/309/358 181/54/364 218/53/365
f 412/309/358 218/53/365 9/52/366
f 412/309/358 9/52/366 171/310/359
f 413/313/367 95/70/368 302/69/369
f 413/313/367 302/69/369 147/68/370
f 413/313/367 147/68/370 146/314/371
f 413/313/367 146/314/371 303/315/372
f 413/313/367 303/315/372 97/316/373
f 413/313/367 97/316/373 98/255/374
f 413/313/367 98/255/374 96/254/375
f 413/313/367 96/254/375 95/70/368
f 414/317/376 55/318/377 268/319/378
f 414/317/376 268/319/378 54/320/379
f 414/317/376 54/320/379 6/260/380
f 414/317/376 6/260/380 162/264/381
f 414/317/376 162/264/381 163/76/382
f 414/317/376 163/76/382 215/75/383
f 414/317/376 215/75/383 5/74/384
f 414/317/376 5/74/384 55/318/377
f 415/321/385 19/212/386 226/220/387
f 415/321/385 226/220/387 20/219/388
f 415/321/385 20/219/388 100/322/389
f 415/321/385 100/322/389 304/323/390
f 415/321/385 304/323/390 99/244/391
f 415/321/385 99/244/391 26/243/392
f 415/321/385 26/243/392 25/308/393
f 415/321/385 25/308/393 19/212/386
f 416/324/394 152/325/395 344/326/396
f 416/324/394 344/326/396 195/248/397
f 416/324/394 195/248/397 197/252/398
f 416/324/394 197/252/398 172/312/399
f 416/324/394 172/312/399 173/202/400
f 416/324/394 173/202/400 259/210/401
f 416/324/394 259/210/401 49/209/402
f 416/324/394 49/209/402 152/325/395
f 417/327/403 35/237/404 113/328/405
f 417/327/403 113/328/405 314/329/406
f 417/327/403 314/329/406 114/256/407
f 417/327/403 114/256/407 98/255/408
f 417/327/403 98/255/408 97/316/409
f 417/327/403 97/316/409 15/239/410
f 417/327/403 15/239/410 223/238/411
f 417/327/403 223/238/411 35/237/404
f 418/330/412 6/260/413 54/320/414
f 418/330/412 54/320/414 57/229/415
f 418/330/412 57/229/415 264/228/416
f 418/330/412 264/228/416 52/227/417
f 418/330/412 52/227/417 70/331/418
f 418/330/412 70/331/418 280/332/419
f 418/330/412 280/332/419 73/261/420
f 418/330/412 73/261/420 6/260/413
f 419/333/421 16/269/422 81/292/423
f 419/333/421 81/292/423 151/162/424
f 419/333/421 151/162/424 342/170/425
f 419/333/421 342/170/425 193/169/426
f 419/333/421 193/169/426 192/334/427
f 419/333/421 192/334/427 291/335/428
f 419/333/421 291/335/428 83/270/429
f 419/333/421 83/270/429 16/269/422
f 420/336/430 48/337/431 257/338/432
f 420/336/430 257/338/432 187/272/433
f 420/336/430 187/272/433 185/276/434
f 420/336/430 185/276/434 166/296/435
f 420/336/430 166/296/435 110/172/436
f 420/336/430 110/172/436 311/180/437
f 420/336/430 311/180/437 109/179/438
f 420/336/430 109/179/438 48/337/431
f 421/339/439 129/187/440 130/340/441
f 421/339/439 130/340/441 251/341/442
f 421/339/439 251/341/442 43/282/443
f 421/339/439 43/282/443 119/281/444
f 421/339/439 119/281/444 120/300/445
f 421/339/439 120/300/445 42/189/446
f 421/339/439 42/189/446 250/188/447
f 421/339/439 250/188/447 129/187/440
f 422/342/448 11/304/449 12/192/450
f 422/342/448 12/192/450 221/200/451
f 422/342/448 221/200/451 29/199/452
f 422/342/448 29/199/452 28/343/453
f 422/342/448 28/343/453 216/344/454
f 422/342/448 216/344/454 8/285/455
f 422/342/448 8/285/455 7/284/456
f 422/342/448 7/284/456 11/304/449
f 423/345/457 204/346/458 263/347/459
f 423/345/457 263/347/459 51/222/460
f 423/345/457 51/222/460 56/230/461
f 423/345/457 56/230/461 270/348/462
f 423/345/457 270/348/462 58/349/463
f 423/345/457 58/349/463 260/350/464
f 423/345/457 260/350/464 50/351/465
f 423/345/457 50/351/465 261/352/466
f 423/345/457 261/352/466 204/353/458
f 424/354/467 14/240/468 222/355/469
f 424/354/467 222/355/469 77/12/470
f 424/354/467 77/12/470 285/20/471
f 424/354/467 285/20/471 78/19/472
f 424/354/467 78/19/472 286/356/473
f 424/354/467 286/356/473 205/357/474
f 424/354/467 205/358/474 350/359/475
f 424/354/467 350/359/475 157/232/476
f 424/354/467 157/232/476 14/240/468
f 425/360/477 140/204/478 174/203/479
f 425/360/477 174/203/479 357/361/480
f 425/360/477 357/361/480 170/26/481
f 425/360/477 170/26/481 333/25/482
f 425/360/477 333/25/482 141/24/483
f 425/360/477 141/24/483 334/362/484
f 425/360/477 334/362/484 204/363/485
f 425/360/477 204/364/485 332/365/486
f 425/360/477 332/365/486 140/204/478
f 426/366/487 86/214/488 87/213/489
f 426/366/487 87/213/489 294/367/490
f 426/366/487 294/367/490 88/368/491
f 426/366/487 88/368/491 295/369/492
f 426/366/487 295/369/492 156/370/493
f 426/366/487 156/370/493 348/371/494
f 426/366/487 348/371/494 205/372/495
f 426/366/487 205/373/495 293/374/496
f 426/366/487 293/374/496 86/214/488
f 427/375/497 41/190/498 249/376/499
f 427/375/497 249/376/499 93/377/500
f 427/375/497 93/377/500 298/378/501
f 427/375/497 298/378/501 90/379/502
f 427/375/497 90/379/502 299/380/503
f 427/375/497 299/380/503 203/381/504
f 427/375/497 203/381/504 254/382/505
f 427/375/497 254/382/505 46/182/506
f 427/375/497 46/182/506 41/190/498
f 428/383/507 74/193/508 282/384/509
f 428/383/507 282/384/509 76/58/510
f 428/383/507 76/58/510 283/57/511
f 428/383/507 283/57/511 75/56/512
f 428/383/507 75/56/512 284/385/513
f 428/383/507 284/385/513 206/386/514
f 428/383/507 206/386/514 337/387/515
f 428/383/507 337/387/515 144/194/516
f 428/383/507 144/194/516 74/193/508
f 429/388/517 175/164/518 176/163/519
f 429/388/517 176/163/519 361/389/520
f 429/388/517 361/389/520 177/65/521
f 429/388/517 177/65/521 362/64/522
f 429/388/517 362/64/522 178/63/523
f 429/388/517 178/63/523 363/390/524
f 429/388/517 363/390/524 206/386/525
f 429/388/517 206/386/525 360/391/526
f 429/388/517 360/391/526 175/164/518
f 430/392/527 135/393/528 327/394/529
f 430/392/527 327/394/529 136/395/530
f 430/392/527 136/395/530 328/396/531
f 430/392/527 328/396/531 203/397/532
f 430/392/527 203/397/532 326/398/533
f 430/392/527 326/398/533 134/174/534
f 430/392/527 134/174/534 133/173/535
f 430/392/527 133/173/535 325/399/536
f 430/392/527 325/399/536 135/393/528
f 431/400/537 3/82/538 211/90/539
f 431/400/537 211/90/539 40/89/540
f 431/400/537 40/89/540 248/401/541
f 431/400/537 248/401/541 201/402/542
f 431/400/537 201/402/542 278/403/543
f 431/400/537 278/403/543 67/136/544
f 431/400/537 67/136/544 68/135/545
f 431/400/537 68/135/545 212/404/546
f 431/400/537 212/404/546 3/82/538
f 432/405/547 45/123/548 252/406/549
f 432/405/547 252/406/549 125/92/550
f 432/405/547 125/92/550 319/100/551
f 432/405/547 319/100/551 126/99/552
f 432/405/547 126/99/552 320/407/553
f 432/405/547 320/407/553 201/402/554
f 432/405/547 201/402/554 247/408/555
f 432/405/547 247/408/555 39/124/556
f 432/405/547 39/124/556 45/123/548
f 433/409/557 47/160/558 255/410/559
f 433/409/557 255/410/559 104/102/560
f 433/409/557 104/102/560 307/110/561
f 433/409/557 307/110/561 103/109/562
f 433/409/557 103/109/562 308/411/563
f 433/409/557 308/411/563 202/412/564
f 433/409/557 202/412/564 290/413/565
f 433/409/557 290/413/565 82/152/566
f 433/409/557 82/152/566 47/160/558
f 434/414/567 85/143/568 292/415/569
f 434/414/567 292/415/569 184/112/570
f 434/414/567 184/112/570 365/120/571
f 434/414/567 365/120/571 182/119/572
f 434/414/567 182/119/572 366/416/573
f 434/414/567 366/416/573 202/412/574
f 434/414/567 202/412/574 239/417/575
f 434/414/567 239/417/575 33/144/576
f 434/414/567 33/144/576 85/143/568
f 435/418/577 201/402/578 248/401/579
f 435/418/577 248/401/579 40/89/580
f 435/418/577 40/89/580 118/88/581
f 435/418/577 118/88/581 316/419/582
f 435/418/577 316/419/582 116/126/583
f 435/418/577 116/126/583 246/125/584
f 435/418/577 246/125/584 39/124/585
f 435/418/577 39/124/585 247/408/586
f 435/418/577 247/408/586 201/402/578
f 436/420/587 201/402/588 320/407/589
f 436/420/587 320/407/589 126/99/590
f 436/420/587 126/99/590 128/98/591
f 436/420/587 128/98/591 281/421/592
f 436/420/587 281/421/592 72/138/593
f 436/420/587 72/138/593 277/137/594
f 436/420/587 277/137/594 67/136/595
f 436/420/587 67/136/595 278/403/596
f 436/420/587 278/403/596 201/402/588
f 437/422/597 33/144/598 239/417/599
f 437/422/597 239/417/599 202/412/600
f 437/422/597 202/412/600 308/411/601
f 437/422/597 308/411/601 103/109/602
f 437/422/597 103/109/602 108/108/603
f 437/422/597 108/108/603 306/423/604
f 437/422/597 306/423/604 102/146/605
f 437/422/597 102/146/605 238/145/606
f 437/422/597 238/145/606 33/144/598
f 438/424/607 202/412/608 366/416/609
f 438/424/607 366/416/609 182/119/610
f 438/424/607 182/119/610 183/118/611
f 438/424/607 183/118/611 346/425/612
f 438/424/607 346/425/612 154/154/613
f 438/424/607 154/154/613 289/153/614
f 438/424/607 289/153/614 82/152/615
f 438/424/607 82/152/615 290/413/616
f 438/424/607 290/413/616 202/412/608
f 439/426/617 180/55/618 364/427/619
f 439/426/617 364/427/619 179/166/620
f 439/426/617 179/166/620 359/165/621
f 439/426/617 359/165/621 175/164/622
f 439/426/617 175/164/622 360/391/623
f 439/426/617 360/391/623 206/386/624
f 439/426/617 206/386/624 284/385/625
f 439/426/617 284/385/625 75/56/626
f 439/426/617 75/56/626 180/55/618
f 440/428/627 90/46/628 91/45/629
f 440/428/627 91/45/629 300/429/630
f 440/428/627 300/429/630 111/176/631
f 440/428/627 111/176/631 313/175/632
f 440/428/627 313/175/632 134/174/633
f 440/428/627 134/174/633 326/398/634
f 440/428/627 326/398/634 203/397/635
f 440/428/627 203/397/635 299/430/636
f 440/428/627 299/430/636 90/46/628
f 441/431/637 203/381/638 328/432/639
f 441/431/637 328/432/639 136/78/640
f 441/431/637 136/78/640 164/77/641
f 441/431/637 164/77/641 351/433/642
f 441/431/637 351/433/642 159/184/643
f 441/431/637 159/184/643 253/183/644
f 441/431/637 253/183/644 46/182/645
f 441/431/637 46/182/645 254/382/646
f 441/431/637 254/382/646 203/381/638
f 442/434/647 143/196/648 336/195/649
f 442/434/647 336/195/649 144/194/650
f 442/434/647 144/194/650 337/387/651
f 442/434/647 337/387/651 206/386/652
f 442/434/647 206/386/652 363/390/653
f 442/434/647 363/390/653 178/63/654
f 442/434/647 178/63/654 142/62/655
f 442/434/647 142/62/655 335/435/656
f 442/434/647 335/435/656 143/196/648
f 443/436/657 50/9/658 137/8/659
f 443/436/657 137/8/659 329/437/660
f 443/436/657 329/437/660 139/206/661
f 443/436/657 139/206/661 331/205/662
f 443/436/657 331/205/662 140/204/663
f 443/436/657 140/204/663 332/365/664
f 443/436/657 332/365/664 204/438/665
f 443/436/657 204/439/665 261/440/666
f 443/436/657 261/440/666 50/9/658
f 444/441/667 21/216/668 229/215/669
f 444/441/667 229/215/669 86/214/670
f 444/441/667 86/214/670 293/374/671
f 444/441/667 293/374/671 205/442/672
f 444/441/667 205/443/672 286/356/673
f 444/441/667 286/356/673 78/19/674
f 444/441/667 78/19/674 79/18/675
f 444/441/667 79/18/675 228/444/676
f 444/441/667 228/444/676 21/216/668
f 445/445/677 204/446/678 334/362/679
f 445/445/677 334/362/679 141/24/680
f 445/445/677 141/24/680 62/23/681
f 445/445/677 62/23/681 273/447/682
f 445/445/677 273/447/682 65/224/683
f 445/445/677 65/224/683 262/223/684
f 445/445/677 262/223/684 51/222/685
f 445/445/677 51/222/685 263/347/686
f 445/445/677 263/347/686 204/448/678
f 446/449/687 155/35/688 347/450/689
f 446/449/687 347/450/689 158/234/690
f 446/449/687 158/234/690 349/233/691
f 446/449/687 349/233/691 157/232/692
f 446/449/687 157/232/692 350/359/693
f 446/449/687 350/359/693 205/451/694
f 446/449/687 205/452/694 348/453/695
f 446/449/687 348/453/695 156/36/696
f 446/449/687 156/36/696 155/35/688
f 447/454/697 152/325/698 343/455/699
f 447/454/697 343/455/699 153/155/700
f 447/454/697 153/155/700 154/154/701
f 447/454/697 154/154/701 346/425/702
f 447/454/697 346/425/702 183/118/703
f 447/454/697 183/118/703 196/117/704
f 447/454/697 196/117/704 195/248/705
f 447/454/697 195/248/705 344/326/706
f 447/454/697 344/326/706 152/325/698
f 448/456/707 100/322/708 305/457/709
f 448/456/707 305/457/709 101/147/710
f 448/456/707 101/147/710 102/146/711
f 448/456/707 102/146/711 306/423/712
f 448/456/707 306/423/712 108/108/713
f 448/456/707 108/108/713 107/107/714
f 448/456/707 107/107/714 99/244/715
f 448/456/707 99/244/715 304/323/716
f 448/456/707 304/323/716 100/322/708
f 449/458/717 71/139/718 72/138/719
f 449/458/717 72/138/719 281/421/720
f 449/458/717 281/421/720 128/98/721
f 449/458/717 128/98/721 127/97/722
f 449/458/717 127/97/722 73/261/723
f 449/458/717 73/261/723 280/332/724
f 449/458/717 280/332/724 70/331/725
f 449/458/717 70/331/725 279/459/726
f 449/458/717 279/459/726 71/139/718
f 450/460/727 113/328/728 315/461/729
f 450/460/727 315/461/729 115/127/730
f 450/460/727 115/127/730 116/126/731
f 450/460/727 116/126/731 316/419/732
f 450/460/727 316/419/732 118/88/733
f 450/460/727 118/88/733 117/87/734
f 450/460/727 117/87/734 114/256/735
f 450/460/727 114/256/735 314/329/736
f 450/460/727 314/329/736 113/328/728
f 451/462/737 47/160/738 188/159/739
f 451/462/737 188/159/739 187/272/740
f 451/462/737 187/272/740 257/338/741
f 451/462/737 257/338/741 48/337/742
f 451/462/737 48/337/742 256/463/743
f 451/462/737 256/463/743 105/103/744
f 451/462/737 105/103/744 104/102/745
f 451/462/737 104/102/745 255/410/746
f 451/462/737 255/410/746 47/160/738
f 452/464/747 83/270/748 291/335/749
f 452/464/747 291/335/749 192/334/750
f 452/464/747 192/334/750 369/465/751
f 452/464/747 369/465/751 191/113/752
f 452/464/747 191/113/752 184/112/753
f 452/464/747 184/112/753 292/415/754
f 452/464/747 292/415/754 85/143/755
f 452/464/747 85/143/755 84/142/756
f 452/464/747 84/142/756 83/270/748
f 453/466/757 68/135/758 69/134/759
f 453/466/757 69/134/759 8/285/760
f 453/466/757 8/285/760 216/344/761
f 453/466/757 216/344/761 28/343/762
f 453/466/757 28/343/762 232/467/763
f 453/466/757 232/467/763 27/83/764
f 453/466/757 27/83/764 3/82/765
f 453/466/757 3/82/765 212/404/766
f 453/466/757 212/404/766 68/135/758
f 454/468/767 43/282/768 251/341/769
f 454/468/767 251/341/769 130/340/770
f 454/468/767 130/340/770 323/469/771
f 454/468/767 323/469/771 131/93/772
f 454/468/767 131/93/772 125/92/773
f 454/468/767 125/92/773 252/406/774
f 454/468/767 252/406/774 45/123/775
f 454/468/767 45/123/775 44/122/776
f 454/468/767 44/122/776 43/282/768
f 455/470/777 158/234/778 347/450/779
f 455/470/777 347/450/779 155/35/780
f 455/470/777 155/35/780 122/34/781
f 455/470/777 122/34/781 121/280/782
f 455/470/777 121/280/782 245/279/783
f 455/470/777 245/279/783 38/278/784
f 455/470/777 38/278/784 242/471/785
f 455/470/777 242/471/785 36/235/786
f 455/470/777 36/235/786 158/234/778
f 456/472/787 60/288/788 272/287/789
f 456/472/787 272/287/789 63/286/790
f 456/472/787 63/286/790 274/473/791
f 456/472/787 274/473/791 64/225/792
f 456/472/787 64/225/792 65/224/793
f 456/472/787 65/224/793 273/447/794
f 456/472/787 273/447/794 62/23/795
f 456/472/787 62/23/795 61/22/796
f 456/472/787 61/22/796 60/288/788
f 457/474/797 17/266/798 225/475/799
f 457/474/797 225/475/799 22/217/800
f 457/474/797 22/217/800 21/216/801
f 457/474/797 21/216/801 228/444/802
f 457/474/797 228/444/802 79/18/803
f 457/474/797 79/18/803 80/17/804
f 457/474/797 80/17/804 18/268/805
f 457/474/797 18/268/805 224/267/806
f 457/474/797 224/267/806 17/266/798
f 458/476/807 137/8/808 165/7/809
f 458/476/807 165/7/809 186/275/810
f 458/476/807 186/275/810 367/274/811
f 458/476/807 367/274/811 190/273/812
f 458/476/807 190/273/812 330/477/813
f 458/476/807 330/477/813 138/207/814
f 458/476/807 138/207/814 139/206/815
f 458/476/807 139/206/815 329/437/816
f 458/476/807 329/437/816 137/8/808
f 459/478/817 159/184/818 351/433/819
f 459/478/817 351/433/819 164/77/820
f 459/478/817 164/77/820 163/76/821
f 459/478/817 163/76/821 162/264/822
f 459/478/817 162/264/822 353/263/823
f 459/478/817 353/263/823 161/262/824
f 459/478/817 161/262/824 352/479/825
f 459/478/817 352/479/825 160/185/826
f 459/478/817 160/185/826 159/184/818
f 460/480/827 143/196/828 335/435/829
f 460/480/827 335/435/829 142/62/830
f 460/480/827 142/62/830 95/70/831
f 460/480/827 95/70/831 96/254/832
f 460/480/827 96/254/832 236/258/833
f 460/480/827 236/258/833 31/257/834
f 460/480/827 31/257/834 235/481/835
f 460/480/827 235/481/835 30/197/836
f 460/480/827 30/197/836 143/196/828
f 461/482/837 180/55/838 181/54/839
f 461/482/837 181/54/839 198/251/840
f 461/482/837 198/251/840 374/250/841
f 461/482/837 374/250/841 199/249/842
f 461/482/837 199/249/842 372/483/843
f 461/482/837 372/483/843 194/167/844
f 461/482/837 194/167/844 179/166/845
f 461/482/837 179/166/845 364/427/846
f 461/482/837 364/427/846 180/55/838
f 462/484/847 34/245/848 240/485/849
f 462/484/847 240/485/849 112/177/850
f 462/484/847 112/177/850 111/176/851
f 462/484/847 111/176/851 300/429/852
f 462/484/847 300/429/852 91/45/853
f 462/484/847 91/45/853 92/44/854
f 462/484/847 92/44/854 24/242/855
f 462/484/847 24/242/855 231/246/856
f 462/484/847 231/246/856 34/245/848
f 463/486/857 14/240/858 15/239/859
f 463/486/857 15/239/859 97/316/860
f 463/486/857 97/316/860 303/315/861
f 463/486/857 303/315/861 146/314/862
f 463/486/857 146/314/862 338/487/863
f 463/486/857 338/487/863 145/13/864
f 463/486/857 145/13/864 77/12/865
f 463/486/857 77/12/865 222/355/866
f 463/486/857 222/355/866 14/240/858
f 464/488/867 55/318/868 269/489/869
f 464/488/867 269/489/869 59/490/870
f 464/488/867 59/490/870 58/349/871
f 464/488/867 58/349/871 270/348/872
f 464/488/867 270/348/872 56/230/873
f 464/488/867 56/230/873 57/229/874
f 464/488/867 57/229/874 54/320/875
f 464/488/867 54/320/875 268/319/876
f 464/488/867 268/319/876 55/318/868
f 465/491/877 2/492/878 88/368/879
f 465/491/877 88/368/879 294/367/880
f 465/491/877 294/367/880 87/213/881
f 465/491/877 87/213/881 19/212/882
f 465/491/877 19/212/882 25/308/883
f 465/491/877 25/308/883 230/307/884
f 465/491/877 230/307/884 23/306/885
f 465/491/877 23/306/885 209/493/886
f 465/491/877 209/493/886 2/492/878
f 466/494/887 169/27/888 170/26/889
f 466/494/887 170/26/889 357/361/890
f 466/494/887 357/361/890 174/203/891
f 466/494/887 174/203/891 173/202/892
f 466/494/887 173/202/892 172/312/893
f 466/494/887 172/312/893 358/311/894
f 466/494/887 358/311/894 171/310/895
f 466/494/887 171/310/895 356/495/896
f 466/494/887 356/495/896 169/27/888
f 467/496/897 10/302/898 220/497/899
f 467/496/897 220/497/899 13/59/900
f 467/496/897 13/59/900 76/58/901
f 467/496/897 76/58/901 282/384/902
f 467/496/897 282/384/902 74/193/903
f 467/496/897 74/193/903 12/192/904
f 467/496/897 12/192/904 11/304/905
f 467/496/897 11/304/905 219/303/906
f 467/496/897 219/303/906 10/302/898
f 468/498/907 41/190/908 42/189/909
f 468/498/907 42/189/909 120/300/910
f 468/498/907 120/300/910 317/299/911
f 468/498/907 317/299/911 124/298/912
f 468/498/907 124/298/912 301/499/913
f 468/498/907 301/499/913 94/500/914
f 468/498/907 94/500/914 93/377/915
f 468/498/907 93/377/915 249/376/916
f 468/498/907 249/376/916 41/190/908
f 469/501/917 4/502/918 135/393/919
f 469/501/917 135/393/919 325/399/920
f 469/501/917 325/399/920 133/173/921
f 469/501/917 133/173/921 110/172/922
f 469/501/917 110/172/922 166/296/923
f 469/501/917 166/296/923 355/295/924
f 469/501/917 355/295/924 167/294/925
f 469/501/917 167/294/925 214/503/926
f 469/501/917 214/503/926 4/502/918
f 470/504/927 150/290/928 341/505/929
f 470/504/927 341/505/929 148/66/930
f 470/504/927 148/66/930 177/65/931
f 470/504/927 177/65/931 361/389/932
f 470/504/927 361/389/932 176/163/933
f 470/504/927 176/163/933 151/162/934
f 470/504/927 151/162/934 81/292/935
f 470/504/927 81/292/935 288/291/936
f 470/504/927 288/291/936 150/290/928
f 471/506/937 1/149/938 208/148/939
f 471/506/937 208/148/939 101/147/940
f 471/506/937 101/147/940 305/457/941
f 471/506/937 305/457/941 100/322/942
f 471/506/937 100/322/942 20/219/943
f 471/506/937 20/219/943 227/218/944
f 471/506/937 227/218/944 22/217/945
f 471/506/937 22/217/945 225/475/946
f 471/506/937 225/475/946 17/266/947
f 471/506/937 17/266/947 1/149/938
f 472/507/948 34/245/949 106/105/950
f 472/507/948 106/105/950 309/104/951
f 472/507/948 309/104/951 105/103/952
f 472/507/948 105/103/952 256/463/953
f 472/507/948 256/463/953 48/337/954
f 472/507/948 48/337/954 109/179/955
f 472/507/948 109/179/955 312/178/956
f 472/507/948 312/178/956 112/177/957
f 472/507/948 112/177/957 240/485/958
f 472/507/948 240/485/958 34/245/949
f 473/508/959 192/334/960 193/169/961
f 473/508/959 193/169/961 371/168/962
f 473/508/959 371/168/962 194/167/963
f 473/508/959 194/167/963 372/483/964
f 473/508/959 372/483/964 199/249/965
f 473/508/959 199/249/965 200/115/966
f 473/508/959 200/115/966 370/114/967
f 473/508/959 370/114/967 191/113/968
f 473/508/959 191/113/968 369/465/969
f 473/508/959 369/465/969 192/334/960
f 474/509/970 49/209/971 258/208/972
f 474/509/970 258/208/972 138/207/973
f 474/509/970 138/207/973 330/477/974
f 474/509/970 330/477/974 190/273/975
f 474/509/970 190/273/975 189/157/976
f 474/509/970 189/157/976 345/156/977
f 474/509/970 345/156/977 153/155/978
f 474/509/970 153/155/978 343/455/979
f 474/509/970 343/455/979 152/325/980
f 474/509/970 152/325/980 49/209/971
f 475/510/981 23/511/982 89/512/983
f 475/510/981 89/512/983 297/513/984
f 475/510/981 297/513/984 94/500/985
f 475/510/981 94/500/985 301/499/986
f 475/510/981 301/499/986 124/298/987
f 475/510/981 124/298/987 123/32/988
f 475/510/981 123/32/988 210/40/989
f 475/510/981 210/40/989 2/39/990
f 475/510/981 2/39/990 209/514/991
f 475/510/981 209/514/991 23/511/982
f 476/515/992 146/314/993 147/68/994
f 476/515/992 147/68/994 340/67/995
f 476/515/992 340/67/995 148/66/996
f 476/515/992 148/66/996 341/505/997
f 476/515/992 341/505/997 150/290/998
f 476/515/992 150/290/998 149/15/999
f 476/515/992 149/15/999 339/14/1000
f 476/515/992 339/14/1000 145/13/1001
f 476/515/992 145/13/1001 338/487/1002
f 476/515/992 338/487/1002 146/314/993
f 477/516/1003 167/517/1004 168/518/1005
f 477/516/1003 168/518/1005 271/519/1006
f 477/516/1003 271/519/1006 59/490/1007
f 477/516/1003 59/490/1007 269/489/1008
f 477/516/1003 269/489/1008 55/318/1009
f 477/516/1003 55/318/1009 5/74/1010
f 477/516/1003 5/74/1010 213/73/1011
f 477/516/1003 213/73/1011 4/72/1012
f 477/516/1003 4/72/1012 214/520/1013
f 477/516/1003 214/520/1013 167/517/1004
f 478/521/1014 9/52/1015 217/60/1016
f 478/521/1014 217/60/1016 13/59/1017
f 478/521/1014 13/59/1017 220/497/1018
f 478/521/1014 220/497/1018 10/302/1019
f 478/521/1014 10/302/1019 53/29/1020
f 478/521/1014 53/29/1020 267/28/1021
f 478/521/1014 267/28/1021 169/27/1022
f 478/521/1014 169/27/1022 356/495/1023
f 478/521/1014 356/495/1023 171/310/1024
f 478/521/1014 171/310/1024 9/52/1015
f 479/522/1025 35/237/1026 241/236/1027
f 479/522/1025 241/236/1027 36/235/1028
f 479/522/1025 36/235/1028 242/471/1029
f 479/522/1025 242/471/1029 38/278/1030
f 479/522/1025 38/278/1030 37/129/1031
f 479/522/1025 37/129/1031 244/128/1032
f 479/522/1025 244/128/1032 115/127/1033
f 479/522/1025 115/127/1033 315/461/1034
f 479/522/1025 315/461/1034 113/328/1035
f 479/522/1025 113/328/1035 35/237/1026
f 480/523/1036 160/185/1037 352/479/1038
f 480/523/1036 352/479/1038 161/262/1039
f 480/523/1036 161/262/1039 132/95/1040
f 480/523/1036 132/95/1040 324/94/1041
f 480/523/1036 324/94/1041 131/93/1042
f 480/523/1036 131/93/1042 323/469/1043
f 480/523/1036 323/469/1043 130/340/1044
f 480/523/1036 130/340/1044 129/187/1045
f 480/523/1036 129/187/1045 322/186/1046
f 480/523/1036 322/186/1046 160/185/1037
f 481/524/1047 28/343/1048 29/199/1049
f 481/524/1047 29/199/1049 234/198/1050
f 481/524/1047 234/198/1050 30/197/1051
f 481/524/1047 30/197/1051 235/481/1052
f 481/524/1047 235/481/1052 31/257/1053
f 481/524/1047 31/257/1053 32/85/1054
f 481/524/1047 32/85/1054 233/84/1055
f 481/524/1047 233/84/1055 27/83/1056
f 481/524/1047 27/83/1056 232/467/1057
f 481/524/1047 232/467/1057 28/343/1048
f 482/525/1058 52/227/1059 265/226/1060
f 482/525/1058 265/226/1060 64/225/1061
f 482/525/1058 64/225/1061 274/473/1062
f 482/525/1058 274/473/1062 63/286/1063
f 482/525/1058 63/286/1063 66/132/1064
f 482/525/1058 66/132/1064 276/140/1065
f 482/525/1058 276/140/1065 71/139/1066
f 482/525/1058 71/139/1066 279/459/1067
f 482/525/1058 279/459/1067 70/331/1068
f 482/525/1058 70/331/1068 52/227/1059
